%TF.GenerationSoftware,KiCad,Pcbnew,8.0.3*%
%TF.CreationDate,2024-07-26T13:29:54+05:30*%
%TF.ProjectId,Micromouse_final,4d696372-6f6d-46f7-9573-655f66696e61,rev?*%
%TF.SameCoordinates,Original*%
%TF.FileFunction,Drillmap*%
%TF.FilePolarity,Positive*%
%FSLAX45Y45*%
G04 Gerber Fmt 4.5, Leading zero omitted, Abs format (unit mm)*
G04 Created by KiCad (PCBNEW 8.0.3) date 2024-07-26 13:29:54*
%MOMM*%
%LPD*%
G01*
G04 APERTURE LIST*
%ADD10C,0.050000*%
%ADD11C,0.200000*%
%ADD12C,0.100000*%
%ADD13C,0.450000*%
G04 APERTURE END LIST*
D10*
X18184000Y-14986000D02*
G75*
G02*
X17884000Y-14986000I-150000J0D01*
G01*
X17884000Y-14986000D02*
G75*
G02*
X18184000Y-14986000I150000J0D01*
G01*
X12342000Y-14986000D02*
G75*
G02*
X12042000Y-14986000I-150000J0D01*
G01*
X12042000Y-14986000D02*
G75*
G02*
X12342000Y-14986000I150000J0D01*
G01*
X18184000Y-6096000D02*
G75*
G02*
X17884000Y-6096000I-150000J0D01*
G01*
X17884000Y-6096000D02*
G75*
G02*
X18184000Y-6096000I150000J0D01*
G01*
X12342000Y-6096000D02*
G75*
G02*
X12042000Y-6096000I-150000J0D01*
G01*
X12042000Y-6096000D02*
G75*
G02*
X12342000Y-6096000I150000J0D01*
G01*
X10160000Y-7620000D02*
G75*
G02*
X20320000Y-7620000I5080000J-2540000D01*
G01*
X10160000Y-7620000D02*
X10160000Y-13716000D01*
X18796000Y-9398000D02*
X19558000Y-9398000D01*
X19558000Y-10922000D01*
X18796000Y-10922000D01*
X18796000Y-9398000D01*
X20320000Y-7620000D02*
X20320000Y-13716000D01*
X10795000Y-9398000D02*
X11557000Y-9398000D01*
X11557000Y-10922000D01*
X10795000Y-10922000D01*
X10795000Y-9398000D01*
X20320000Y-13716000D02*
G75*
G02*
X10160000Y-13716000I-5080000J2540000D01*
G01*
D11*
D12*
X10399000Y-11669000D02*
X10429000Y-11699000D01*
X10429000Y-11669000D02*
X10399000Y-11699000D01*
X11415000Y-11415000D02*
X11445000Y-11445000D01*
X11445000Y-11415000D02*
X11415000Y-11445000D01*
X12939000Y-15987000D02*
X12969000Y-16017000D01*
X12969000Y-15987000D02*
X12939000Y-16017000D01*
X14717000Y-10399000D02*
X14747000Y-10429000D01*
X14747000Y-10399000D02*
X14717000Y-10429000D01*
X15733000Y-12939000D02*
X15763000Y-12969000D01*
X15763000Y-12939000D02*
X15733000Y-12969000D01*
X18273000Y-14209000D02*
X18303000Y-14239000D01*
X18303000Y-14209000D02*
X18273000Y-14239000D01*
X18427940Y-12725640D02*
X18457940Y-12755640D01*
X18457940Y-12725640D02*
X18427940Y-12755640D01*
X19141680Y-11140680D02*
X19171680Y-11170680D01*
X19171680Y-11140680D02*
X19141680Y-11170680D01*
X19141680Y-11140680D02*
X19171680Y-11170680D01*
X19171680Y-11140680D02*
X19141680Y-11170680D01*
X11061700Y-13258800D02*
G75*
G02*
X10985500Y-13258800I-38100J0D01*
G01*
X10985500Y-13258800D02*
G75*
G02*
X11061700Y-13258800I38100J0D01*
G01*
X11315700Y-13258800D02*
G75*
G02*
X11239500Y-13258800I-38100J0D01*
G01*
X11239500Y-13258800D02*
G75*
G02*
X11315700Y-13258800I38100J0D01*
G01*
X11569700Y-13258800D02*
G75*
G02*
X11493500Y-13258800I-38100J0D01*
G01*
X11493500Y-13258800D02*
G75*
G02*
X11569700Y-13258800I38100J0D01*
G01*
X11823700Y-13258800D02*
G75*
G02*
X11747500Y-13258800I-38100J0D01*
G01*
X11747500Y-13258800D02*
G75*
G02*
X11823700Y-13258800I38100J0D01*
G01*
X11976100Y-6858000D02*
G75*
G02*
X11899900Y-6858000I-38100J0D01*
G01*
X11899900Y-6858000D02*
G75*
G02*
X11976100Y-6858000I38100J0D01*
G01*
X11976100Y-7112000D02*
G75*
G02*
X11899900Y-7112000I-38100J0D01*
G01*
X11899900Y-7112000D02*
G75*
G02*
X11976100Y-7112000I38100J0D01*
G01*
X11976100Y-7366000D02*
G75*
G02*
X11899900Y-7366000I-38100J0D01*
G01*
X11899900Y-7366000D02*
G75*
G02*
X11976100Y-7366000I38100J0D01*
G01*
X11976100Y-7620000D02*
G75*
G02*
X11899900Y-7620000I-38100J0D01*
G01*
X11899900Y-7620000D02*
G75*
G02*
X11976100Y-7620000I38100J0D01*
G01*
X12077700Y-13258800D02*
G75*
G02*
X12001500Y-13258800I-38100J0D01*
G01*
X12001500Y-13258800D02*
G75*
G02*
X12077700Y-13258800I38100J0D01*
G01*
X12331700Y-13258800D02*
G75*
G02*
X12255500Y-13258800I-38100J0D01*
G01*
X12255500Y-13258800D02*
G75*
G02*
X12331700Y-13258800I38100J0D01*
G01*
X12484100Y-9652000D02*
G75*
G02*
X12407900Y-9652000I-38100J0D01*
G01*
X12407900Y-9652000D02*
G75*
G02*
X12484100Y-9652000I38100J0D01*
G01*
X12484100Y-9906000D02*
G75*
G02*
X12407900Y-9906000I-38100J0D01*
G01*
X12407900Y-9906000D02*
G75*
G02*
X12484100Y-9906000I38100J0D01*
G01*
X12484100Y-10160000D02*
G75*
G02*
X12407900Y-10160000I-38100J0D01*
G01*
X12407900Y-10160000D02*
G75*
G02*
X12484100Y-10160000I38100J0D01*
G01*
X12484100Y-10414000D02*
G75*
G02*
X12407900Y-10414000I-38100J0D01*
G01*
X12407900Y-10414000D02*
G75*
G02*
X12484100Y-10414000I38100J0D01*
G01*
X12484100Y-10668000D02*
G75*
G02*
X12407900Y-10668000I-38100J0D01*
G01*
X12407900Y-10668000D02*
G75*
G02*
X12484100Y-10668000I38100J0D01*
G01*
X12484100Y-10922000D02*
G75*
G02*
X12407900Y-10922000I-38100J0D01*
G01*
X12407900Y-10922000D02*
G75*
G02*
X12484100Y-10922000I38100J0D01*
G01*
X12585700Y-13258800D02*
G75*
G02*
X12509500Y-13258800I-38100J0D01*
G01*
X12509500Y-13258800D02*
G75*
G02*
X12585700Y-13258800I38100J0D01*
G01*
X12839700Y-13258800D02*
G75*
G02*
X12763500Y-13258800I-38100J0D01*
G01*
X12763500Y-13258800D02*
G75*
G02*
X12839700Y-13258800I38100J0D01*
G01*
X13500100Y-14986000D02*
G75*
G02*
X13423900Y-14986000I-38100J0D01*
G01*
X13423900Y-14986000D02*
G75*
G02*
X13500100Y-14986000I38100J0D01*
G01*
X13500100Y-15748000D02*
G75*
G02*
X13423900Y-15748000I-38100J0D01*
G01*
X13423900Y-15748000D02*
G75*
G02*
X13500100Y-15748000I38100J0D01*
G01*
X13754100Y-7112000D02*
G75*
G02*
X13677900Y-7112000I-38100J0D01*
G01*
X13677900Y-7112000D02*
G75*
G02*
X13754100Y-7112000I38100J0D01*
G01*
X13754100Y-7366000D02*
G75*
G02*
X13677900Y-7366000I-38100J0D01*
G01*
X13677900Y-7366000D02*
G75*
G02*
X13754100Y-7366000I38100J0D01*
G01*
X13754100Y-7620000D02*
G75*
G02*
X13677900Y-7620000I-38100J0D01*
G01*
X13677900Y-7620000D02*
G75*
G02*
X13754100Y-7620000I38100J0D01*
G01*
X13754100Y-7874000D02*
G75*
G02*
X13677900Y-7874000I-38100J0D01*
G01*
X13677900Y-7874000D02*
G75*
G02*
X13754100Y-7874000I38100J0D01*
G01*
X13754100Y-8128000D02*
G75*
G02*
X13677900Y-8128000I-38100J0D01*
G01*
X13677900Y-8128000D02*
G75*
G02*
X13754100Y-8128000I38100J0D01*
G01*
X13754100Y-8382000D02*
G75*
G02*
X13677900Y-8382000I-38100J0D01*
G01*
X13677900Y-8382000D02*
G75*
G02*
X13754100Y-8382000I38100J0D01*
G01*
X13754100Y-8636000D02*
G75*
G02*
X13677900Y-8636000I-38100J0D01*
G01*
X13677900Y-8636000D02*
G75*
G02*
X13754100Y-8636000I38100J0D01*
G01*
X13754100Y-8890000D02*
G75*
G02*
X13677900Y-8890000I-38100J0D01*
G01*
X13677900Y-8890000D02*
G75*
G02*
X13754100Y-8890000I38100J0D01*
G01*
X13754100Y-9144000D02*
G75*
G02*
X13677900Y-9144000I-38100J0D01*
G01*
X13677900Y-9144000D02*
G75*
G02*
X13754100Y-9144000I38100J0D01*
G01*
X13754100Y-9398000D02*
G75*
G02*
X13677900Y-9398000I-38100J0D01*
G01*
X13677900Y-9398000D02*
G75*
G02*
X13754100Y-9398000I38100J0D01*
G01*
X13754100Y-9652000D02*
G75*
G02*
X13677900Y-9652000I-38100J0D01*
G01*
X13677900Y-9652000D02*
G75*
G02*
X13754100Y-9652000I38100J0D01*
G01*
X13754100Y-9906000D02*
G75*
G02*
X13677900Y-9906000I-38100J0D01*
G01*
X13677900Y-9906000D02*
G75*
G02*
X13754100Y-9906000I38100J0D01*
G01*
X13754100Y-10160000D02*
G75*
G02*
X13677900Y-10160000I-38100J0D01*
G01*
X13677900Y-10160000D02*
G75*
G02*
X13754100Y-10160000I38100J0D01*
G01*
X13754100Y-10414000D02*
G75*
G02*
X13677900Y-10414000I-38100J0D01*
G01*
X13677900Y-10414000D02*
G75*
G02*
X13754100Y-10414000I38100J0D01*
G01*
X13754100Y-10668000D02*
G75*
G02*
X13677900Y-10668000I-38100J0D01*
G01*
X13677900Y-10668000D02*
G75*
G02*
X13754100Y-10668000I38100J0D01*
G01*
X13754100Y-10922000D02*
G75*
G02*
X13677900Y-10922000I-38100J0D01*
G01*
X13677900Y-10922000D02*
G75*
G02*
X13754100Y-10922000I38100J0D01*
G01*
X13754100Y-11176000D02*
G75*
G02*
X13677900Y-11176000I-38100J0D01*
G01*
X13677900Y-11176000D02*
G75*
G02*
X13754100Y-11176000I38100J0D01*
G01*
X13754100Y-11430000D02*
G75*
G02*
X13677900Y-11430000I-38100J0D01*
G01*
X13677900Y-11430000D02*
G75*
G02*
X13754100Y-11430000I38100J0D01*
G01*
X13754100Y-11684000D02*
G75*
G02*
X13677900Y-11684000I-38100J0D01*
G01*
X13677900Y-11684000D02*
G75*
G02*
X13754100Y-11684000I38100J0D01*
G01*
X13754100Y-11938000D02*
G75*
G02*
X13677900Y-11938000I-38100J0D01*
G01*
X13677900Y-11938000D02*
G75*
G02*
X13754100Y-11938000I38100J0D01*
G01*
X13754100Y-12192000D02*
G75*
G02*
X13677900Y-12192000I-38100J0D01*
G01*
X13677900Y-12192000D02*
G75*
G02*
X13754100Y-12192000I38100J0D01*
G01*
X13754100Y-12446000D02*
G75*
G02*
X13677900Y-12446000I-38100J0D01*
G01*
X13677900Y-12446000D02*
G75*
G02*
X13754100Y-12446000I38100J0D01*
G01*
X13754100Y-12700000D02*
G75*
G02*
X13677900Y-12700000I-38100J0D01*
G01*
X13677900Y-12700000D02*
G75*
G02*
X13754100Y-12700000I38100J0D01*
G01*
X13754100Y-12954000D02*
G75*
G02*
X13677900Y-12954000I-38100J0D01*
G01*
X13677900Y-12954000D02*
G75*
G02*
X13754100Y-12954000I38100J0D01*
G01*
X14516100Y-7112000D02*
G75*
G02*
X14439900Y-7112000I-38100J0D01*
G01*
X14439900Y-7112000D02*
G75*
G02*
X14516100Y-7112000I38100J0D01*
G01*
X14516100Y-7366000D02*
G75*
G02*
X14439900Y-7366000I-38100J0D01*
G01*
X14439900Y-7366000D02*
G75*
G02*
X14516100Y-7366000I38100J0D01*
G01*
X14516100Y-7620000D02*
G75*
G02*
X14439900Y-7620000I-38100J0D01*
G01*
X14439900Y-7620000D02*
G75*
G02*
X14516100Y-7620000I38100J0D01*
G01*
X14516100Y-7874000D02*
G75*
G02*
X14439900Y-7874000I-38100J0D01*
G01*
X14439900Y-7874000D02*
G75*
G02*
X14516100Y-7874000I38100J0D01*
G01*
X14516100Y-8128000D02*
G75*
G02*
X14439900Y-8128000I-38100J0D01*
G01*
X14439900Y-8128000D02*
G75*
G02*
X14516100Y-8128000I38100J0D01*
G01*
X14516100Y-8382000D02*
G75*
G02*
X14439900Y-8382000I-38100J0D01*
G01*
X14439900Y-8382000D02*
G75*
G02*
X14516100Y-8382000I38100J0D01*
G01*
X14516100Y-8636000D02*
G75*
G02*
X14439900Y-8636000I-38100J0D01*
G01*
X14439900Y-8636000D02*
G75*
G02*
X14516100Y-8636000I38100J0D01*
G01*
X14516100Y-8890000D02*
G75*
G02*
X14439900Y-8890000I-38100J0D01*
G01*
X14439900Y-8890000D02*
G75*
G02*
X14516100Y-8890000I38100J0D01*
G01*
X14516100Y-9144000D02*
G75*
G02*
X14439900Y-9144000I-38100J0D01*
G01*
X14439900Y-9144000D02*
G75*
G02*
X14516100Y-9144000I38100J0D01*
G01*
X14516100Y-9398000D02*
G75*
G02*
X14439900Y-9398000I-38100J0D01*
G01*
X14439900Y-9398000D02*
G75*
G02*
X14516100Y-9398000I38100J0D01*
G01*
X14516100Y-9652000D02*
G75*
G02*
X14439900Y-9652000I-38100J0D01*
G01*
X14439900Y-9652000D02*
G75*
G02*
X14516100Y-9652000I38100J0D01*
G01*
X14516100Y-9906000D02*
G75*
G02*
X14439900Y-9906000I-38100J0D01*
G01*
X14439900Y-9906000D02*
G75*
G02*
X14516100Y-9906000I38100J0D01*
G01*
X14516100Y-10160000D02*
G75*
G02*
X14439900Y-10160000I-38100J0D01*
G01*
X14439900Y-10160000D02*
G75*
G02*
X14516100Y-10160000I38100J0D01*
G01*
X14516100Y-10414000D02*
G75*
G02*
X14439900Y-10414000I-38100J0D01*
G01*
X14439900Y-10414000D02*
G75*
G02*
X14516100Y-10414000I38100J0D01*
G01*
X14516100Y-10668000D02*
G75*
G02*
X14439900Y-10668000I-38100J0D01*
G01*
X14439900Y-10668000D02*
G75*
G02*
X14516100Y-10668000I38100J0D01*
G01*
X14516100Y-10922000D02*
G75*
G02*
X14439900Y-10922000I-38100J0D01*
G01*
X14439900Y-10922000D02*
G75*
G02*
X14516100Y-10922000I38100J0D01*
G01*
X14516100Y-11176000D02*
G75*
G02*
X14439900Y-11176000I-38100J0D01*
G01*
X14439900Y-11176000D02*
G75*
G02*
X14516100Y-11176000I38100J0D01*
G01*
X14516100Y-11430000D02*
G75*
G02*
X14439900Y-11430000I-38100J0D01*
G01*
X14439900Y-11430000D02*
G75*
G02*
X14516100Y-11430000I38100J0D01*
G01*
X14516100Y-11684000D02*
G75*
G02*
X14439900Y-11684000I-38100J0D01*
G01*
X14439900Y-11684000D02*
G75*
G02*
X14516100Y-11684000I38100J0D01*
G01*
X14516100Y-11938000D02*
G75*
G02*
X14439900Y-11938000I-38100J0D01*
G01*
X14439900Y-11938000D02*
G75*
G02*
X14516100Y-11938000I38100J0D01*
G01*
X14516100Y-12192000D02*
G75*
G02*
X14439900Y-12192000I-38100J0D01*
G01*
X14439900Y-12192000D02*
G75*
G02*
X14516100Y-12192000I38100J0D01*
G01*
X14516100Y-12446000D02*
G75*
G02*
X14439900Y-12446000I-38100J0D01*
G01*
X14439900Y-12446000D02*
G75*
G02*
X14516100Y-12446000I38100J0D01*
G01*
X14516100Y-12700000D02*
G75*
G02*
X14439900Y-12700000I-38100J0D01*
G01*
X14439900Y-12700000D02*
G75*
G02*
X14516100Y-12700000I38100J0D01*
G01*
X14516100Y-12954000D02*
G75*
G02*
X14439900Y-12954000I-38100J0D01*
G01*
X14439900Y-12954000D02*
G75*
G02*
X14516100Y-12954000I38100J0D01*
G01*
X14770100Y-14986000D02*
G75*
G02*
X14693900Y-14986000I-38100J0D01*
G01*
X14693900Y-14986000D02*
G75*
G02*
X14770100Y-14986000I38100J0D01*
G01*
X14770100Y-15748000D02*
G75*
G02*
X14693900Y-15748000I-38100J0D01*
G01*
X14693900Y-15748000D02*
G75*
G02*
X14770100Y-15748000I38100J0D01*
G01*
X15024100Y-5588000D02*
G75*
G02*
X14947900Y-5588000I-38100J0D01*
G01*
X14947900Y-5588000D02*
G75*
G02*
X15024100Y-5588000I38100J0D01*
G01*
X15049500Y-13944600D02*
G75*
G02*
X14973300Y-13944600I-38100J0D01*
G01*
X14973300Y-13944600D02*
G75*
G02*
X15049500Y-13944600I38100J0D01*
G01*
X15278100Y-5588000D02*
G75*
G02*
X15201900Y-5588000I-38100J0D01*
G01*
X15201900Y-5588000D02*
G75*
G02*
X15278100Y-5588000I38100J0D01*
G01*
X15303500Y-13944600D02*
G75*
G02*
X15227300Y-13944600I-38100J0D01*
G01*
X15227300Y-13944600D02*
G75*
G02*
X15303500Y-13944600I38100J0D01*
G01*
X15532100Y-5588000D02*
G75*
G02*
X15455900Y-5588000I-38100J0D01*
G01*
X15455900Y-5588000D02*
G75*
G02*
X15532100Y-5588000I38100J0D01*
G01*
X15557500Y-13944600D02*
G75*
G02*
X15481300Y-13944600I-38100J0D01*
G01*
X15481300Y-13944600D02*
G75*
G02*
X15557500Y-13944600I38100J0D01*
G01*
X15786100Y-5588000D02*
G75*
G02*
X15709900Y-5588000I-38100J0D01*
G01*
X15709900Y-5588000D02*
G75*
G02*
X15786100Y-5588000I38100J0D01*
G01*
X16040100Y-7112000D02*
G75*
G02*
X15963900Y-7112000I-38100J0D01*
G01*
X15963900Y-7112000D02*
G75*
G02*
X16040100Y-7112000I38100J0D01*
G01*
X16040100Y-7366000D02*
G75*
G02*
X15963900Y-7366000I-38100J0D01*
G01*
X15963900Y-7366000D02*
G75*
G02*
X16040100Y-7366000I38100J0D01*
G01*
X16040100Y-7620000D02*
G75*
G02*
X15963900Y-7620000I-38100J0D01*
G01*
X15963900Y-7620000D02*
G75*
G02*
X16040100Y-7620000I38100J0D01*
G01*
X16040100Y-7874000D02*
G75*
G02*
X15963900Y-7874000I-38100J0D01*
G01*
X15963900Y-7874000D02*
G75*
G02*
X16040100Y-7874000I38100J0D01*
G01*
X16040100Y-8128000D02*
G75*
G02*
X15963900Y-8128000I-38100J0D01*
G01*
X15963900Y-8128000D02*
G75*
G02*
X16040100Y-8128000I38100J0D01*
G01*
X16040100Y-8382000D02*
G75*
G02*
X15963900Y-8382000I-38100J0D01*
G01*
X15963900Y-8382000D02*
G75*
G02*
X16040100Y-8382000I38100J0D01*
G01*
X16040100Y-8636000D02*
G75*
G02*
X15963900Y-8636000I-38100J0D01*
G01*
X15963900Y-8636000D02*
G75*
G02*
X16040100Y-8636000I38100J0D01*
G01*
X16040100Y-8890000D02*
G75*
G02*
X15963900Y-8890000I-38100J0D01*
G01*
X15963900Y-8890000D02*
G75*
G02*
X16040100Y-8890000I38100J0D01*
G01*
X16040100Y-9144000D02*
G75*
G02*
X15963900Y-9144000I-38100J0D01*
G01*
X15963900Y-9144000D02*
G75*
G02*
X16040100Y-9144000I38100J0D01*
G01*
X16040100Y-9398000D02*
G75*
G02*
X15963900Y-9398000I-38100J0D01*
G01*
X15963900Y-9398000D02*
G75*
G02*
X16040100Y-9398000I38100J0D01*
G01*
X16040100Y-9652000D02*
G75*
G02*
X15963900Y-9652000I-38100J0D01*
G01*
X15963900Y-9652000D02*
G75*
G02*
X16040100Y-9652000I38100J0D01*
G01*
X16040100Y-9906000D02*
G75*
G02*
X15963900Y-9906000I-38100J0D01*
G01*
X15963900Y-9906000D02*
G75*
G02*
X16040100Y-9906000I38100J0D01*
G01*
X16040100Y-10160000D02*
G75*
G02*
X15963900Y-10160000I-38100J0D01*
G01*
X15963900Y-10160000D02*
G75*
G02*
X16040100Y-10160000I38100J0D01*
G01*
X16040100Y-10414000D02*
G75*
G02*
X15963900Y-10414000I-38100J0D01*
G01*
X15963900Y-10414000D02*
G75*
G02*
X16040100Y-10414000I38100J0D01*
G01*
X16040100Y-10668000D02*
G75*
G02*
X15963900Y-10668000I-38100J0D01*
G01*
X15963900Y-10668000D02*
G75*
G02*
X16040100Y-10668000I38100J0D01*
G01*
X16040100Y-10922000D02*
G75*
G02*
X15963900Y-10922000I-38100J0D01*
G01*
X15963900Y-10922000D02*
G75*
G02*
X16040100Y-10922000I38100J0D01*
G01*
X16040100Y-11176000D02*
G75*
G02*
X15963900Y-11176000I-38100J0D01*
G01*
X15963900Y-11176000D02*
G75*
G02*
X16040100Y-11176000I38100J0D01*
G01*
X16040100Y-11430000D02*
G75*
G02*
X15963900Y-11430000I-38100J0D01*
G01*
X15963900Y-11430000D02*
G75*
G02*
X16040100Y-11430000I38100J0D01*
G01*
X16040100Y-11684000D02*
G75*
G02*
X15963900Y-11684000I-38100J0D01*
G01*
X15963900Y-11684000D02*
G75*
G02*
X16040100Y-11684000I38100J0D01*
G01*
X16040100Y-11938000D02*
G75*
G02*
X15963900Y-11938000I-38100J0D01*
G01*
X15963900Y-11938000D02*
G75*
G02*
X16040100Y-11938000I38100J0D01*
G01*
X16040100Y-12192000D02*
G75*
G02*
X15963900Y-12192000I-38100J0D01*
G01*
X15963900Y-12192000D02*
G75*
G02*
X16040100Y-12192000I38100J0D01*
G01*
X16040100Y-12446000D02*
G75*
G02*
X15963900Y-12446000I-38100J0D01*
G01*
X15963900Y-12446000D02*
G75*
G02*
X16040100Y-12446000I38100J0D01*
G01*
X16040100Y-12700000D02*
G75*
G02*
X15963900Y-12700000I-38100J0D01*
G01*
X15963900Y-12700000D02*
G75*
G02*
X16040100Y-12700000I38100J0D01*
G01*
X16040100Y-12954000D02*
G75*
G02*
X15963900Y-12954000I-38100J0D01*
G01*
X15963900Y-12954000D02*
G75*
G02*
X16040100Y-12954000I38100J0D01*
G01*
X16802100Y-7112000D02*
G75*
G02*
X16725900Y-7112000I-38100J0D01*
G01*
X16725900Y-7112000D02*
G75*
G02*
X16802100Y-7112000I38100J0D01*
G01*
X16802100Y-7366000D02*
G75*
G02*
X16725900Y-7366000I-38100J0D01*
G01*
X16725900Y-7366000D02*
G75*
G02*
X16802100Y-7366000I38100J0D01*
G01*
X16802100Y-7620000D02*
G75*
G02*
X16725900Y-7620000I-38100J0D01*
G01*
X16725900Y-7620000D02*
G75*
G02*
X16802100Y-7620000I38100J0D01*
G01*
X16802100Y-7874000D02*
G75*
G02*
X16725900Y-7874000I-38100J0D01*
G01*
X16725900Y-7874000D02*
G75*
G02*
X16802100Y-7874000I38100J0D01*
G01*
X16802100Y-8128000D02*
G75*
G02*
X16725900Y-8128000I-38100J0D01*
G01*
X16725900Y-8128000D02*
G75*
G02*
X16802100Y-8128000I38100J0D01*
G01*
X16802100Y-8382000D02*
G75*
G02*
X16725900Y-8382000I-38100J0D01*
G01*
X16725900Y-8382000D02*
G75*
G02*
X16802100Y-8382000I38100J0D01*
G01*
X16802100Y-8636000D02*
G75*
G02*
X16725900Y-8636000I-38100J0D01*
G01*
X16725900Y-8636000D02*
G75*
G02*
X16802100Y-8636000I38100J0D01*
G01*
X16802100Y-8890000D02*
G75*
G02*
X16725900Y-8890000I-38100J0D01*
G01*
X16725900Y-8890000D02*
G75*
G02*
X16802100Y-8890000I38100J0D01*
G01*
X16802100Y-9144000D02*
G75*
G02*
X16725900Y-9144000I-38100J0D01*
G01*
X16725900Y-9144000D02*
G75*
G02*
X16802100Y-9144000I38100J0D01*
G01*
X16802100Y-9398000D02*
G75*
G02*
X16725900Y-9398000I-38100J0D01*
G01*
X16725900Y-9398000D02*
G75*
G02*
X16802100Y-9398000I38100J0D01*
G01*
X16802100Y-9652000D02*
G75*
G02*
X16725900Y-9652000I-38100J0D01*
G01*
X16725900Y-9652000D02*
G75*
G02*
X16802100Y-9652000I38100J0D01*
G01*
X16802100Y-9906000D02*
G75*
G02*
X16725900Y-9906000I-38100J0D01*
G01*
X16725900Y-9906000D02*
G75*
G02*
X16802100Y-9906000I38100J0D01*
G01*
X16802100Y-10160000D02*
G75*
G02*
X16725900Y-10160000I-38100J0D01*
G01*
X16725900Y-10160000D02*
G75*
G02*
X16802100Y-10160000I38100J0D01*
G01*
X16802100Y-10414000D02*
G75*
G02*
X16725900Y-10414000I-38100J0D01*
G01*
X16725900Y-10414000D02*
G75*
G02*
X16802100Y-10414000I38100J0D01*
G01*
X16802100Y-10668000D02*
G75*
G02*
X16725900Y-10668000I-38100J0D01*
G01*
X16725900Y-10668000D02*
G75*
G02*
X16802100Y-10668000I38100J0D01*
G01*
X16802100Y-10922000D02*
G75*
G02*
X16725900Y-10922000I-38100J0D01*
G01*
X16725900Y-10922000D02*
G75*
G02*
X16802100Y-10922000I38100J0D01*
G01*
X16802100Y-11176000D02*
G75*
G02*
X16725900Y-11176000I-38100J0D01*
G01*
X16725900Y-11176000D02*
G75*
G02*
X16802100Y-11176000I38100J0D01*
G01*
X16802100Y-11430000D02*
G75*
G02*
X16725900Y-11430000I-38100J0D01*
G01*
X16725900Y-11430000D02*
G75*
G02*
X16802100Y-11430000I38100J0D01*
G01*
X16802100Y-11684000D02*
G75*
G02*
X16725900Y-11684000I-38100J0D01*
G01*
X16725900Y-11684000D02*
G75*
G02*
X16802100Y-11684000I38100J0D01*
G01*
X16802100Y-11938000D02*
G75*
G02*
X16725900Y-11938000I-38100J0D01*
G01*
X16725900Y-11938000D02*
G75*
G02*
X16802100Y-11938000I38100J0D01*
G01*
X16802100Y-12192000D02*
G75*
G02*
X16725900Y-12192000I-38100J0D01*
G01*
X16725900Y-12192000D02*
G75*
G02*
X16802100Y-12192000I38100J0D01*
G01*
X16802100Y-12446000D02*
G75*
G02*
X16725900Y-12446000I-38100J0D01*
G01*
X16725900Y-12446000D02*
G75*
G02*
X16802100Y-12446000I38100J0D01*
G01*
X16802100Y-12700000D02*
G75*
G02*
X16725900Y-12700000I-38100J0D01*
G01*
X16725900Y-12700000D02*
G75*
G02*
X16802100Y-12700000I38100J0D01*
G01*
X16802100Y-12954000D02*
G75*
G02*
X16725900Y-12954000I-38100J0D01*
G01*
X16725900Y-12954000D02*
G75*
G02*
X16802100Y-12954000I38100J0D01*
G01*
X17868900Y-11887200D02*
G75*
G02*
X17792700Y-11887200I-38100J0D01*
G01*
X17792700Y-11887200D02*
G75*
G02*
X17868900Y-11887200I38100J0D01*
G01*
X17868900Y-13411200D02*
G75*
G02*
X17792700Y-13411200I-38100J0D01*
G01*
X17792700Y-13411200D02*
G75*
G02*
X17868900Y-13411200I38100J0D01*
G01*
X18072100Y-9652000D02*
G75*
G02*
X17995900Y-9652000I-38100J0D01*
G01*
X17995900Y-9652000D02*
G75*
G02*
X18072100Y-9652000I38100J0D01*
G01*
X18072100Y-9906000D02*
G75*
G02*
X17995900Y-9906000I-38100J0D01*
G01*
X17995900Y-9906000D02*
G75*
G02*
X18072100Y-9906000I38100J0D01*
G01*
X18072100Y-10160000D02*
G75*
G02*
X17995900Y-10160000I-38100J0D01*
G01*
X17995900Y-10160000D02*
G75*
G02*
X18072100Y-10160000I38100J0D01*
G01*
X18072100Y-10414000D02*
G75*
G02*
X17995900Y-10414000I-38100J0D01*
G01*
X17995900Y-10414000D02*
G75*
G02*
X18072100Y-10414000I38100J0D01*
G01*
X18072100Y-10668000D02*
G75*
G02*
X17995900Y-10668000I-38100J0D01*
G01*
X17995900Y-10668000D02*
G75*
G02*
X18072100Y-10668000I38100J0D01*
G01*
X18072100Y-10922000D02*
G75*
G02*
X17995900Y-10922000I-38100J0D01*
G01*
X17995900Y-10922000D02*
G75*
G02*
X18072100Y-10922000I38100J0D01*
G01*
X18122900Y-11887200D02*
G75*
G02*
X18046700Y-11887200I-38100J0D01*
G01*
X18046700Y-11887200D02*
G75*
G02*
X18122900Y-11887200I38100J0D01*
G01*
X18122900Y-13411200D02*
G75*
G02*
X18046700Y-13411200I-38100J0D01*
G01*
X18046700Y-13411200D02*
G75*
G02*
X18122900Y-13411200I38100J0D01*
G01*
X18376900Y-11887200D02*
G75*
G02*
X18300700Y-11887200I-38100J0D01*
G01*
X18300700Y-11887200D02*
G75*
G02*
X18376900Y-11887200I38100J0D01*
G01*
X18376900Y-13411200D02*
G75*
G02*
X18300700Y-13411200I-38100J0D01*
G01*
X18300700Y-13411200D02*
G75*
G02*
X18376900Y-13411200I38100J0D01*
G01*
X18580100Y-6858000D02*
G75*
G02*
X18503900Y-6858000I-38100J0D01*
G01*
X18503900Y-6858000D02*
G75*
G02*
X18580100Y-6858000I38100J0D01*
G01*
X18580100Y-7112000D02*
G75*
G02*
X18503900Y-7112000I-38100J0D01*
G01*
X18503900Y-7112000D02*
G75*
G02*
X18580100Y-7112000I38100J0D01*
G01*
X18580100Y-7366000D02*
G75*
G02*
X18503900Y-7366000I-38100J0D01*
G01*
X18503900Y-7366000D02*
G75*
G02*
X18580100Y-7366000I38100J0D01*
G01*
X18580100Y-7620000D02*
G75*
G02*
X18503900Y-7620000I-38100J0D01*
G01*
X18503900Y-7620000D02*
G75*
G02*
X18580100Y-7620000I38100J0D01*
G01*
X18630900Y-11887200D02*
G75*
G02*
X18554700Y-11887200I-38100J0D01*
G01*
X18554700Y-11887200D02*
G75*
G02*
X18630900Y-11887200I38100J0D01*
G01*
X18630900Y-13411200D02*
G75*
G02*
X18554700Y-13411200I-38100J0D01*
G01*
X18554700Y-13411200D02*
G75*
G02*
X18630900Y-13411200I38100J0D01*
G01*
X18884900Y-11887200D02*
G75*
G02*
X18808700Y-11887200I-38100J0D01*
G01*
X18808700Y-11887200D02*
G75*
G02*
X18884900Y-11887200I38100J0D01*
G01*
X18884900Y-13411200D02*
G75*
G02*
X18808700Y-13411200I-38100J0D01*
G01*
X18808700Y-13411200D02*
G75*
G02*
X18884900Y-13411200I38100J0D01*
G01*
X19138900Y-11887200D02*
G75*
G02*
X19062700Y-11887200I-38100J0D01*
G01*
X19062700Y-11887200D02*
G75*
G02*
X19138900Y-11887200I38100J0D01*
G01*
X19138900Y-13411200D02*
G75*
G02*
X19062700Y-13411200I-38100J0D01*
G01*
X19062700Y-13411200D02*
G75*
G02*
X19138900Y-13411200I38100J0D01*
G01*
X19392900Y-11887200D02*
G75*
G02*
X19316700Y-11887200I-38100J0D01*
G01*
X19316700Y-11887200D02*
G75*
G02*
X19392900Y-11887200I38100J0D01*
G01*
X19392900Y-13411200D02*
G75*
G02*
X19316700Y-13411200I-38100J0D01*
G01*
X19316700Y-13411200D02*
G75*
G02*
X19392900Y-13411200I38100J0D01*
G01*
X19646900Y-11887200D02*
G75*
G02*
X19570700Y-11887200I-38100J0D01*
G01*
X19570700Y-11887200D02*
G75*
G02*
X19646900Y-11887200I38100J0D01*
G01*
X19646900Y-13411200D02*
G75*
G02*
X19570700Y-13411200I-38100J0D01*
G01*
X19570700Y-13411200D02*
G75*
G02*
X19646900Y-13411200I38100J0D01*
G01*
D13*
X16510000Y-14659400D02*
X16510000Y-15109400D01*
X16285000Y-14884400D02*
X16735000Y-14884400D01*
X16510000Y-15379400D02*
X16510000Y-15829400D01*
X16285000Y-15604400D02*
X16735000Y-15604400D01*
D11*
X10418277Y-17169596D02*
X10418277Y-16969596D01*
X10418277Y-16969596D02*
X10465896Y-16969596D01*
X10465896Y-16969596D02*
X10494467Y-16979120D01*
X10494467Y-16979120D02*
X10513515Y-16998168D01*
X10513515Y-16998168D02*
X10523039Y-17017215D01*
X10523039Y-17017215D02*
X10532563Y-17055311D01*
X10532563Y-17055311D02*
X10532563Y-17083882D01*
X10532563Y-17083882D02*
X10523039Y-17121977D01*
X10523039Y-17121977D02*
X10513515Y-17141025D01*
X10513515Y-17141025D02*
X10494467Y-17160073D01*
X10494467Y-17160073D02*
X10465896Y-17169596D01*
X10465896Y-17169596D02*
X10418277Y-17169596D01*
X10618277Y-17169596D02*
X10618277Y-17036263D01*
X10618277Y-17074358D02*
X10627801Y-17055311D01*
X10627801Y-17055311D02*
X10637324Y-17045787D01*
X10637324Y-17045787D02*
X10656372Y-17036263D01*
X10656372Y-17036263D02*
X10675420Y-17036263D01*
X10742086Y-17169596D02*
X10742086Y-17036263D01*
X10742086Y-16969596D02*
X10732563Y-16979120D01*
X10732563Y-16979120D02*
X10742086Y-16988644D01*
X10742086Y-16988644D02*
X10751610Y-16979120D01*
X10751610Y-16979120D02*
X10742086Y-16969596D01*
X10742086Y-16969596D02*
X10742086Y-16988644D01*
X10865896Y-17169596D02*
X10846848Y-17160073D01*
X10846848Y-17160073D02*
X10837324Y-17141025D01*
X10837324Y-17141025D02*
X10837324Y-16969596D01*
X10970658Y-17169596D02*
X10951610Y-17160073D01*
X10951610Y-17160073D02*
X10942086Y-17141025D01*
X10942086Y-17141025D02*
X10942086Y-16969596D01*
X11199229Y-17169596D02*
X11199229Y-16969596D01*
X11199229Y-16969596D02*
X11265896Y-17112454D01*
X11265896Y-17112454D02*
X11332562Y-16969596D01*
X11332562Y-16969596D02*
X11332562Y-17169596D01*
X11513515Y-17169596D02*
X11513515Y-17064835D01*
X11513515Y-17064835D02*
X11503991Y-17045787D01*
X11503991Y-17045787D02*
X11484943Y-17036263D01*
X11484943Y-17036263D02*
X11446848Y-17036263D01*
X11446848Y-17036263D02*
X11427801Y-17045787D01*
X11513515Y-17160073D02*
X11494467Y-17169596D01*
X11494467Y-17169596D02*
X11446848Y-17169596D01*
X11446848Y-17169596D02*
X11427801Y-17160073D01*
X11427801Y-17160073D02*
X11418277Y-17141025D01*
X11418277Y-17141025D02*
X11418277Y-17121977D01*
X11418277Y-17121977D02*
X11427801Y-17102930D01*
X11427801Y-17102930D02*
X11446848Y-17093406D01*
X11446848Y-17093406D02*
X11494467Y-17093406D01*
X11494467Y-17093406D02*
X11513515Y-17083882D01*
X11608753Y-17036263D02*
X11608753Y-17236263D01*
X11608753Y-17045787D02*
X11627801Y-17036263D01*
X11627801Y-17036263D02*
X11665896Y-17036263D01*
X11665896Y-17036263D02*
X11684943Y-17045787D01*
X11684943Y-17045787D02*
X11694467Y-17055311D01*
X11694467Y-17055311D02*
X11703991Y-17074358D01*
X11703991Y-17074358D02*
X11703991Y-17131501D01*
X11703991Y-17131501D02*
X11694467Y-17150549D01*
X11694467Y-17150549D02*
X11684943Y-17160073D01*
X11684943Y-17160073D02*
X11665896Y-17169596D01*
X11665896Y-17169596D02*
X11627801Y-17169596D01*
X11627801Y-17169596D02*
X11608753Y-17160073D01*
X11789705Y-17150549D02*
X11799229Y-17160073D01*
X11799229Y-17160073D02*
X11789705Y-17169596D01*
X11789705Y-17169596D02*
X11780182Y-17160073D01*
X11780182Y-17160073D02*
X11789705Y-17150549D01*
X11789705Y-17150549D02*
X11789705Y-17169596D01*
X11789705Y-17045787D02*
X11799229Y-17055311D01*
X11799229Y-17055311D02*
X11789705Y-17064835D01*
X11789705Y-17064835D02*
X11780182Y-17055311D01*
X11780182Y-17055311D02*
X11789705Y-17045787D01*
X11789705Y-17045787D02*
X11789705Y-17064835D01*
D12*
X10127500Y-17483113D02*
X10157500Y-17513113D01*
X10157500Y-17483113D02*
X10127500Y-17513113D01*
D11*
X10456372Y-17389596D02*
X10475420Y-17389596D01*
X10475420Y-17389596D02*
X10494467Y-17399120D01*
X10494467Y-17399120D02*
X10503991Y-17408644D01*
X10503991Y-17408644D02*
X10513515Y-17427692D01*
X10513515Y-17427692D02*
X10523039Y-17465787D01*
X10523039Y-17465787D02*
X10523039Y-17513406D01*
X10523039Y-17513406D02*
X10513515Y-17551501D01*
X10513515Y-17551501D02*
X10503991Y-17570549D01*
X10503991Y-17570549D02*
X10494467Y-17580073D01*
X10494467Y-17580073D02*
X10475420Y-17589596D01*
X10475420Y-17589596D02*
X10456372Y-17589596D01*
X10456372Y-17589596D02*
X10437324Y-17580073D01*
X10437324Y-17580073D02*
X10427801Y-17570549D01*
X10427801Y-17570549D02*
X10418277Y-17551501D01*
X10418277Y-17551501D02*
X10408753Y-17513406D01*
X10408753Y-17513406D02*
X10408753Y-17465787D01*
X10408753Y-17465787D02*
X10418277Y-17427692D01*
X10418277Y-17427692D02*
X10427801Y-17408644D01*
X10427801Y-17408644D02*
X10437324Y-17399120D01*
X10437324Y-17399120D02*
X10456372Y-17389596D01*
X10608753Y-17570549D02*
X10618277Y-17580073D01*
X10618277Y-17580073D02*
X10608753Y-17589596D01*
X10608753Y-17589596D02*
X10599229Y-17580073D01*
X10599229Y-17580073D02*
X10608753Y-17570549D01*
X10608753Y-17570549D02*
X10608753Y-17589596D01*
X10684944Y-17389596D02*
X10808753Y-17389596D01*
X10808753Y-17389596D02*
X10742086Y-17465787D01*
X10742086Y-17465787D02*
X10770658Y-17465787D01*
X10770658Y-17465787D02*
X10789705Y-17475311D01*
X10789705Y-17475311D02*
X10799229Y-17484835D01*
X10799229Y-17484835D02*
X10808753Y-17503882D01*
X10808753Y-17503882D02*
X10808753Y-17551501D01*
X10808753Y-17551501D02*
X10799229Y-17570549D01*
X10799229Y-17570549D02*
X10789705Y-17580073D01*
X10789705Y-17580073D02*
X10770658Y-17589596D01*
X10770658Y-17589596D02*
X10713515Y-17589596D01*
X10713515Y-17589596D02*
X10694467Y-17580073D01*
X10694467Y-17580073D02*
X10684944Y-17570549D01*
X10932563Y-17389596D02*
X10951610Y-17389596D01*
X10951610Y-17389596D02*
X10970658Y-17399120D01*
X10970658Y-17399120D02*
X10980182Y-17408644D01*
X10980182Y-17408644D02*
X10989705Y-17427692D01*
X10989705Y-17427692D02*
X10999229Y-17465787D01*
X10999229Y-17465787D02*
X10999229Y-17513406D01*
X10999229Y-17513406D02*
X10989705Y-17551501D01*
X10989705Y-17551501D02*
X10980182Y-17570549D01*
X10980182Y-17570549D02*
X10970658Y-17580073D01*
X10970658Y-17580073D02*
X10951610Y-17589596D01*
X10951610Y-17589596D02*
X10932563Y-17589596D01*
X10932563Y-17589596D02*
X10913515Y-17580073D01*
X10913515Y-17580073D02*
X10903991Y-17570549D01*
X10903991Y-17570549D02*
X10894467Y-17551501D01*
X10894467Y-17551501D02*
X10884944Y-17513406D01*
X10884944Y-17513406D02*
X10884944Y-17465787D01*
X10884944Y-17465787D02*
X10894467Y-17427692D01*
X10894467Y-17427692D02*
X10903991Y-17408644D01*
X10903991Y-17408644D02*
X10913515Y-17399120D01*
X10913515Y-17399120D02*
X10932563Y-17389596D01*
X11123039Y-17389596D02*
X11142086Y-17389596D01*
X11142086Y-17389596D02*
X11161134Y-17399120D01*
X11161134Y-17399120D02*
X11170658Y-17408644D01*
X11170658Y-17408644D02*
X11180182Y-17427692D01*
X11180182Y-17427692D02*
X11189705Y-17465787D01*
X11189705Y-17465787D02*
X11189705Y-17513406D01*
X11189705Y-17513406D02*
X11180182Y-17551501D01*
X11180182Y-17551501D02*
X11170658Y-17570549D01*
X11170658Y-17570549D02*
X11161134Y-17580073D01*
X11161134Y-17580073D02*
X11142086Y-17589596D01*
X11142086Y-17589596D02*
X11123039Y-17589596D01*
X11123039Y-17589596D02*
X11103991Y-17580073D01*
X11103991Y-17580073D02*
X11094467Y-17570549D01*
X11094467Y-17570549D02*
X11084944Y-17551501D01*
X11084944Y-17551501D02*
X11075420Y-17513406D01*
X11075420Y-17513406D02*
X11075420Y-17465787D01*
X11075420Y-17465787D02*
X11084944Y-17427692D01*
X11084944Y-17427692D02*
X11094467Y-17408644D01*
X11094467Y-17408644D02*
X11103991Y-17399120D01*
X11103991Y-17399120D02*
X11123039Y-17389596D01*
X11275420Y-17589596D02*
X11275420Y-17456263D01*
X11275420Y-17475311D02*
X11284943Y-17465787D01*
X11284943Y-17465787D02*
X11303991Y-17456263D01*
X11303991Y-17456263D02*
X11332563Y-17456263D01*
X11332563Y-17456263D02*
X11351610Y-17465787D01*
X11351610Y-17465787D02*
X11361134Y-17484835D01*
X11361134Y-17484835D02*
X11361134Y-17589596D01*
X11361134Y-17484835D02*
X11370658Y-17465787D01*
X11370658Y-17465787D02*
X11389705Y-17456263D01*
X11389705Y-17456263D02*
X11418277Y-17456263D01*
X11418277Y-17456263D02*
X11437324Y-17465787D01*
X11437324Y-17465787D02*
X11446848Y-17484835D01*
X11446848Y-17484835D02*
X11446848Y-17589596D01*
X11542086Y-17589596D02*
X11542086Y-17456263D01*
X11542086Y-17475311D02*
X11551610Y-17465787D01*
X11551610Y-17465787D02*
X11570658Y-17456263D01*
X11570658Y-17456263D02*
X11599229Y-17456263D01*
X11599229Y-17456263D02*
X11618277Y-17465787D01*
X11618277Y-17465787D02*
X11627801Y-17484835D01*
X11627801Y-17484835D02*
X11627801Y-17589596D01*
X11627801Y-17484835D02*
X11637324Y-17465787D01*
X11637324Y-17465787D02*
X11656372Y-17456263D01*
X11656372Y-17456263D02*
X11684943Y-17456263D01*
X11684943Y-17456263D02*
X11703991Y-17465787D01*
X11703991Y-17465787D02*
X11713515Y-17484835D01*
X11713515Y-17484835D02*
X11713515Y-17589596D01*
X12103991Y-17380073D02*
X11932563Y-17637215D01*
X12361134Y-17389596D02*
X12380182Y-17389596D01*
X12380182Y-17389596D02*
X12399229Y-17399120D01*
X12399229Y-17399120D02*
X12408753Y-17408644D01*
X12408753Y-17408644D02*
X12418277Y-17427692D01*
X12418277Y-17427692D02*
X12427801Y-17465787D01*
X12427801Y-17465787D02*
X12427801Y-17513406D01*
X12427801Y-17513406D02*
X12418277Y-17551501D01*
X12418277Y-17551501D02*
X12408753Y-17570549D01*
X12408753Y-17570549D02*
X12399229Y-17580073D01*
X12399229Y-17580073D02*
X12380182Y-17589596D01*
X12380182Y-17589596D02*
X12361134Y-17589596D01*
X12361134Y-17589596D02*
X12342086Y-17580073D01*
X12342086Y-17580073D02*
X12332563Y-17570549D01*
X12332563Y-17570549D02*
X12323039Y-17551501D01*
X12323039Y-17551501D02*
X12313515Y-17513406D01*
X12313515Y-17513406D02*
X12313515Y-17465787D01*
X12313515Y-17465787D02*
X12323039Y-17427692D01*
X12323039Y-17427692D02*
X12332563Y-17408644D01*
X12332563Y-17408644D02*
X12342086Y-17399120D01*
X12342086Y-17399120D02*
X12361134Y-17389596D01*
X12513515Y-17570549D02*
X12523039Y-17580073D01*
X12523039Y-17580073D02*
X12513515Y-17589596D01*
X12513515Y-17589596D02*
X12503991Y-17580073D01*
X12503991Y-17580073D02*
X12513515Y-17570549D01*
X12513515Y-17570549D02*
X12513515Y-17589596D01*
X12646848Y-17389596D02*
X12665896Y-17389596D01*
X12665896Y-17389596D02*
X12684944Y-17399120D01*
X12684944Y-17399120D02*
X12694467Y-17408644D01*
X12694467Y-17408644D02*
X12703991Y-17427692D01*
X12703991Y-17427692D02*
X12713515Y-17465787D01*
X12713515Y-17465787D02*
X12713515Y-17513406D01*
X12713515Y-17513406D02*
X12703991Y-17551501D01*
X12703991Y-17551501D02*
X12694467Y-17570549D01*
X12694467Y-17570549D02*
X12684944Y-17580073D01*
X12684944Y-17580073D02*
X12665896Y-17589596D01*
X12665896Y-17589596D02*
X12646848Y-17589596D01*
X12646848Y-17589596D02*
X12627801Y-17580073D01*
X12627801Y-17580073D02*
X12618277Y-17570549D01*
X12618277Y-17570549D02*
X12608753Y-17551501D01*
X12608753Y-17551501D02*
X12599229Y-17513406D01*
X12599229Y-17513406D02*
X12599229Y-17465787D01*
X12599229Y-17465787D02*
X12608753Y-17427692D01*
X12608753Y-17427692D02*
X12618277Y-17408644D01*
X12618277Y-17408644D02*
X12627801Y-17399120D01*
X12627801Y-17399120D02*
X12646848Y-17389596D01*
X12903991Y-17589596D02*
X12789706Y-17589596D01*
X12846848Y-17589596D02*
X12846848Y-17389596D01*
X12846848Y-17389596D02*
X12827801Y-17418168D01*
X12827801Y-17418168D02*
X12808753Y-17437215D01*
X12808753Y-17437215D02*
X12789706Y-17446739D01*
X13094467Y-17589596D02*
X12980182Y-17589596D01*
X13037325Y-17589596D02*
X13037325Y-17389596D01*
X13037325Y-17389596D02*
X13018277Y-17418168D01*
X13018277Y-17418168D02*
X12999229Y-17437215D01*
X12999229Y-17437215D02*
X12980182Y-17446739D01*
X13208753Y-17475311D02*
X13189706Y-17465787D01*
X13189706Y-17465787D02*
X13180182Y-17456263D01*
X13180182Y-17456263D02*
X13170658Y-17437215D01*
X13170658Y-17437215D02*
X13170658Y-17427692D01*
X13170658Y-17427692D02*
X13180182Y-17408644D01*
X13180182Y-17408644D02*
X13189706Y-17399120D01*
X13189706Y-17399120D02*
X13208753Y-17389596D01*
X13208753Y-17389596D02*
X13246848Y-17389596D01*
X13246848Y-17389596D02*
X13265896Y-17399120D01*
X13265896Y-17399120D02*
X13275420Y-17408644D01*
X13275420Y-17408644D02*
X13284944Y-17427692D01*
X13284944Y-17427692D02*
X13284944Y-17437215D01*
X13284944Y-17437215D02*
X13275420Y-17456263D01*
X13275420Y-17456263D02*
X13265896Y-17465787D01*
X13265896Y-17465787D02*
X13246848Y-17475311D01*
X13246848Y-17475311D02*
X13208753Y-17475311D01*
X13208753Y-17475311D02*
X13189706Y-17484835D01*
X13189706Y-17484835D02*
X13180182Y-17494358D01*
X13180182Y-17494358D02*
X13170658Y-17513406D01*
X13170658Y-17513406D02*
X13170658Y-17551501D01*
X13170658Y-17551501D02*
X13180182Y-17570549D01*
X13180182Y-17570549D02*
X13189706Y-17580073D01*
X13189706Y-17580073D02*
X13208753Y-17589596D01*
X13208753Y-17589596D02*
X13246848Y-17589596D01*
X13246848Y-17589596D02*
X13265896Y-17580073D01*
X13265896Y-17580073D02*
X13275420Y-17570549D01*
X13275420Y-17570549D02*
X13284944Y-17551501D01*
X13284944Y-17551501D02*
X13284944Y-17513406D01*
X13284944Y-17513406D02*
X13275420Y-17494358D01*
X13275420Y-17494358D02*
X13265896Y-17484835D01*
X13265896Y-17484835D02*
X13246848Y-17475311D01*
X13361134Y-17389596D02*
X13361134Y-17427692D01*
X13437325Y-17389596D02*
X13437325Y-17427692D01*
X13732563Y-17665787D02*
X13723039Y-17656263D01*
X13723039Y-17656263D02*
X13703991Y-17627692D01*
X13703991Y-17627692D02*
X13694468Y-17608644D01*
X13694468Y-17608644D02*
X13684944Y-17580073D01*
X13684944Y-17580073D02*
X13675420Y-17532454D01*
X13675420Y-17532454D02*
X13675420Y-17494358D01*
X13675420Y-17494358D02*
X13684944Y-17446739D01*
X13684944Y-17446739D02*
X13694468Y-17418168D01*
X13694468Y-17418168D02*
X13703991Y-17399120D01*
X13703991Y-17399120D02*
X13723039Y-17370549D01*
X13723039Y-17370549D02*
X13732563Y-17361025D01*
X13818277Y-17589596D02*
X13856372Y-17589596D01*
X13856372Y-17589596D02*
X13875420Y-17580073D01*
X13875420Y-17580073D02*
X13884944Y-17570549D01*
X13884944Y-17570549D02*
X13903991Y-17541977D01*
X13903991Y-17541977D02*
X13913515Y-17503882D01*
X13913515Y-17503882D02*
X13913515Y-17427692D01*
X13913515Y-17427692D02*
X13903991Y-17408644D01*
X13903991Y-17408644D02*
X13894468Y-17399120D01*
X13894468Y-17399120D02*
X13875420Y-17389596D01*
X13875420Y-17389596D02*
X13837325Y-17389596D01*
X13837325Y-17389596D02*
X13818277Y-17399120D01*
X13818277Y-17399120D02*
X13808753Y-17408644D01*
X13808753Y-17408644D02*
X13799229Y-17427692D01*
X13799229Y-17427692D02*
X13799229Y-17475311D01*
X13799229Y-17475311D02*
X13808753Y-17494358D01*
X13808753Y-17494358D02*
X13818277Y-17503882D01*
X13818277Y-17503882D02*
X13837325Y-17513406D01*
X13837325Y-17513406D02*
X13875420Y-17513406D01*
X13875420Y-17513406D02*
X13894468Y-17503882D01*
X13894468Y-17503882D02*
X13903991Y-17494358D01*
X13903991Y-17494358D02*
X13913515Y-17475311D01*
X14151610Y-17589596D02*
X14151610Y-17389596D01*
X14237325Y-17589596D02*
X14237325Y-17484835D01*
X14237325Y-17484835D02*
X14227801Y-17465787D01*
X14227801Y-17465787D02*
X14208753Y-17456263D01*
X14208753Y-17456263D02*
X14180182Y-17456263D01*
X14180182Y-17456263D02*
X14161134Y-17465787D01*
X14161134Y-17465787D02*
X14151610Y-17475311D01*
X14361134Y-17589596D02*
X14342087Y-17580073D01*
X14342087Y-17580073D02*
X14332563Y-17570549D01*
X14332563Y-17570549D02*
X14323039Y-17551501D01*
X14323039Y-17551501D02*
X14323039Y-17494358D01*
X14323039Y-17494358D02*
X14332563Y-17475311D01*
X14332563Y-17475311D02*
X14342087Y-17465787D01*
X14342087Y-17465787D02*
X14361134Y-17456263D01*
X14361134Y-17456263D02*
X14389706Y-17456263D01*
X14389706Y-17456263D02*
X14408753Y-17465787D01*
X14408753Y-17465787D02*
X14418277Y-17475311D01*
X14418277Y-17475311D02*
X14427801Y-17494358D01*
X14427801Y-17494358D02*
X14427801Y-17551501D01*
X14427801Y-17551501D02*
X14418277Y-17570549D01*
X14418277Y-17570549D02*
X14408753Y-17580073D01*
X14408753Y-17580073D02*
X14389706Y-17589596D01*
X14389706Y-17589596D02*
X14361134Y-17589596D01*
X14542087Y-17589596D02*
X14523039Y-17580073D01*
X14523039Y-17580073D02*
X14513515Y-17561025D01*
X14513515Y-17561025D02*
X14513515Y-17389596D01*
X14694468Y-17580073D02*
X14675420Y-17589596D01*
X14675420Y-17589596D02*
X14637325Y-17589596D01*
X14637325Y-17589596D02*
X14618277Y-17580073D01*
X14618277Y-17580073D02*
X14608753Y-17561025D01*
X14608753Y-17561025D02*
X14608753Y-17484835D01*
X14608753Y-17484835D02*
X14618277Y-17465787D01*
X14618277Y-17465787D02*
X14637325Y-17456263D01*
X14637325Y-17456263D02*
X14675420Y-17456263D01*
X14675420Y-17456263D02*
X14694468Y-17465787D01*
X14694468Y-17465787D02*
X14703991Y-17484835D01*
X14703991Y-17484835D02*
X14703991Y-17503882D01*
X14703991Y-17503882D02*
X14608753Y-17522930D01*
X14780182Y-17580073D02*
X14799230Y-17589596D01*
X14799230Y-17589596D02*
X14837325Y-17589596D01*
X14837325Y-17589596D02*
X14856372Y-17580073D01*
X14856372Y-17580073D02*
X14865896Y-17561025D01*
X14865896Y-17561025D02*
X14865896Y-17551501D01*
X14865896Y-17551501D02*
X14856372Y-17532454D01*
X14856372Y-17532454D02*
X14837325Y-17522930D01*
X14837325Y-17522930D02*
X14808753Y-17522930D01*
X14808753Y-17522930D02*
X14789706Y-17513406D01*
X14789706Y-17513406D02*
X14780182Y-17494358D01*
X14780182Y-17494358D02*
X14780182Y-17484835D01*
X14780182Y-17484835D02*
X14789706Y-17465787D01*
X14789706Y-17465787D02*
X14808753Y-17456263D01*
X14808753Y-17456263D02*
X14837325Y-17456263D01*
X14837325Y-17456263D02*
X14856372Y-17465787D01*
X14932563Y-17665787D02*
X14942087Y-17656263D01*
X14942087Y-17656263D02*
X14961134Y-17627692D01*
X14961134Y-17627692D02*
X14970658Y-17608644D01*
X14970658Y-17608644D02*
X14980182Y-17580073D01*
X14980182Y-17580073D02*
X14989706Y-17532454D01*
X14989706Y-17532454D02*
X14989706Y-17494358D01*
X14989706Y-17494358D02*
X14980182Y-17446739D01*
X14980182Y-17446739D02*
X14970658Y-17418168D01*
X14970658Y-17418168D02*
X14961134Y-17399120D01*
X14961134Y-17399120D02*
X14942087Y-17370549D01*
X14942087Y-17370549D02*
X14932563Y-17361025D01*
D12*
X10157500Y-17762113D02*
G75*
G02*
X10081300Y-17762113I-38100J0D01*
G01*
X10081300Y-17762113D02*
G75*
G02*
X10157500Y-17762113I38100J0D01*
G01*
D11*
X10456372Y-17653596D02*
X10475420Y-17653596D01*
X10475420Y-17653596D02*
X10494467Y-17663120D01*
X10494467Y-17663120D02*
X10503991Y-17672644D01*
X10503991Y-17672644D02*
X10513515Y-17691692D01*
X10513515Y-17691692D02*
X10523039Y-17729787D01*
X10523039Y-17729787D02*
X10523039Y-17777406D01*
X10523039Y-17777406D02*
X10513515Y-17815501D01*
X10513515Y-17815501D02*
X10503991Y-17834549D01*
X10503991Y-17834549D02*
X10494467Y-17844073D01*
X10494467Y-17844073D02*
X10475420Y-17853596D01*
X10475420Y-17853596D02*
X10456372Y-17853596D01*
X10456372Y-17853596D02*
X10437324Y-17844073D01*
X10437324Y-17844073D02*
X10427801Y-17834549D01*
X10427801Y-17834549D02*
X10418277Y-17815501D01*
X10418277Y-17815501D02*
X10408753Y-17777406D01*
X10408753Y-17777406D02*
X10408753Y-17729787D01*
X10408753Y-17729787D02*
X10418277Y-17691692D01*
X10418277Y-17691692D02*
X10427801Y-17672644D01*
X10427801Y-17672644D02*
X10437324Y-17663120D01*
X10437324Y-17663120D02*
X10456372Y-17653596D01*
X10608753Y-17834549D02*
X10618277Y-17844073D01*
X10618277Y-17844073D02*
X10608753Y-17853596D01*
X10608753Y-17853596D02*
X10599229Y-17844073D01*
X10599229Y-17844073D02*
X10608753Y-17834549D01*
X10608753Y-17834549D02*
X10608753Y-17853596D01*
X10684944Y-17653596D02*
X10818277Y-17653596D01*
X10818277Y-17653596D02*
X10732563Y-17853596D01*
X10980182Y-17653596D02*
X10942086Y-17653596D01*
X10942086Y-17653596D02*
X10923039Y-17663120D01*
X10923039Y-17663120D02*
X10913515Y-17672644D01*
X10913515Y-17672644D02*
X10894467Y-17701215D01*
X10894467Y-17701215D02*
X10884944Y-17739311D01*
X10884944Y-17739311D02*
X10884944Y-17815501D01*
X10884944Y-17815501D02*
X10894467Y-17834549D01*
X10894467Y-17834549D02*
X10903991Y-17844073D01*
X10903991Y-17844073D02*
X10923039Y-17853596D01*
X10923039Y-17853596D02*
X10961134Y-17853596D01*
X10961134Y-17853596D02*
X10980182Y-17844073D01*
X10980182Y-17844073D02*
X10989705Y-17834549D01*
X10989705Y-17834549D02*
X10999229Y-17815501D01*
X10999229Y-17815501D02*
X10999229Y-17767882D01*
X10999229Y-17767882D02*
X10989705Y-17748835D01*
X10989705Y-17748835D02*
X10980182Y-17739311D01*
X10980182Y-17739311D02*
X10961134Y-17729787D01*
X10961134Y-17729787D02*
X10923039Y-17729787D01*
X10923039Y-17729787D02*
X10903991Y-17739311D01*
X10903991Y-17739311D02*
X10894467Y-17748835D01*
X10894467Y-17748835D02*
X10884944Y-17767882D01*
X11075420Y-17672644D02*
X11084944Y-17663120D01*
X11084944Y-17663120D02*
X11103991Y-17653596D01*
X11103991Y-17653596D02*
X11151610Y-17653596D01*
X11151610Y-17653596D02*
X11170658Y-17663120D01*
X11170658Y-17663120D02*
X11180182Y-17672644D01*
X11180182Y-17672644D02*
X11189705Y-17691692D01*
X11189705Y-17691692D02*
X11189705Y-17710739D01*
X11189705Y-17710739D02*
X11180182Y-17739311D01*
X11180182Y-17739311D02*
X11065896Y-17853596D01*
X11065896Y-17853596D02*
X11189705Y-17853596D01*
X11275420Y-17853596D02*
X11275420Y-17720263D01*
X11275420Y-17739311D02*
X11284943Y-17729787D01*
X11284943Y-17729787D02*
X11303991Y-17720263D01*
X11303991Y-17720263D02*
X11332563Y-17720263D01*
X11332563Y-17720263D02*
X11351610Y-17729787D01*
X11351610Y-17729787D02*
X11361134Y-17748835D01*
X11361134Y-17748835D02*
X11361134Y-17853596D01*
X11361134Y-17748835D02*
X11370658Y-17729787D01*
X11370658Y-17729787D02*
X11389705Y-17720263D01*
X11389705Y-17720263D02*
X11418277Y-17720263D01*
X11418277Y-17720263D02*
X11437324Y-17729787D01*
X11437324Y-17729787D02*
X11446848Y-17748835D01*
X11446848Y-17748835D02*
X11446848Y-17853596D01*
X11542086Y-17853596D02*
X11542086Y-17720263D01*
X11542086Y-17739311D02*
X11551610Y-17729787D01*
X11551610Y-17729787D02*
X11570658Y-17720263D01*
X11570658Y-17720263D02*
X11599229Y-17720263D01*
X11599229Y-17720263D02*
X11618277Y-17729787D01*
X11618277Y-17729787D02*
X11627801Y-17748835D01*
X11627801Y-17748835D02*
X11627801Y-17853596D01*
X11627801Y-17748835D02*
X11637324Y-17729787D01*
X11637324Y-17729787D02*
X11656372Y-17720263D01*
X11656372Y-17720263D02*
X11684943Y-17720263D01*
X11684943Y-17720263D02*
X11703991Y-17729787D01*
X11703991Y-17729787D02*
X11713515Y-17748835D01*
X11713515Y-17748835D02*
X11713515Y-17853596D01*
X12103991Y-17644073D02*
X11932563Y-17901215D01*
X12361134Y-17653596D02*
X12380182Y-17653596D01*
X12380182Y-17653596D02*
X12399229Y-17663120D01*
X12399229Y-17663120D02*
X12408753Y-17672644D01*
X12408753Y-17672644D02*
X12418277Y-17691692D01*
X12418277Y-17691692D02*
X12427801Y-17729787D01*
X12427801Y-17729787D02*
X12427801Y-17777406D01*
X12427801Y-17777406D02*
X12418277Y-17815501D01*
X12418277Y-17815501D02*
X12408753Y-17834549D01*
X12408753Y-17834549D02*
X12399229Y-17844073D01*
X12399229Y-17844073D02*
X12380182Y-17853596D01*
X12380182Y-17853596D02*
X12361134Y-17853596D01*
X12361134Y-17853596D02*
X12342086Y-17844073D01*
X12342086Y-17844073D02*
X12332563Y-17834549D01*
X12332563Y-17834549D02*
X12323039Y-17815501D01*
X12323039Y-17815501D02*
X12313515Y-17777406D01*
X12313515Y-17777406D02*
X12313515Y-17729787D01*
X12313515Y-17729787D02*
X12323039Y-17691692D01*
X12323039Y-17691692D02*
X12332563Y-17672644D01*
X12332563Y-17672644D02*
X12342086Y-17663120D01*
X12342086Y-17663120D02*
X12361134Y-17653596D01*
X12513515Y-17834549D02*
X12523039Y-17844073D01*
X12523039Y-17844073D02*
X12513515Y-17853596D01*
X12513515Y-17853596D02*
X12503991Y-17844073D01*
X12503991Y-17844073D02*
X12513515Y-17834549D01*
X12513515Y-17834549D02*
X12513515Y-17853596D01*
X12646848Y-17653596D02*
X12665896Y-17653596D01*
X12665896Y-17653596D02*
X12684944Y-17663120D01*
X12684944Y-17663120D02*
X12694467Y-17672644D01*
X12694467Y-17672644D02*
X12703991Y-17691692D01*
X12703991Y-17691692D02*
X12713515Y-17729787D01*
X12713515Y-17729787D02*
X12713515Y-17777406D01*
X12713515Y-17777406D02*
X12703991Y-17815501D01*
X12703991Y-17815501D02*
X12694467Y-17834549D01*
X12694467Y-17834549D02*
X12684944Y-17844073D01*
X12684944Y-17844073D02*
X12665896Y-17853596D01*
X12665896Y-17853596D02*
X12646848Y-17853596D01*
X12646848Y-17853596D02*
X12627801Y-17844073D01*
X12627801Y-17844073D02*
X12618277Y-17834549D01*
X12618277Y-17834549D02*
X12608753Y-17815501D01*
X12608753Y-17815501D02*
X12599229Y-17777406D01*
X12599229Y-17777406D02*
X12599229Y-17729787D01*
X12599229Y-17729787D02*
X12608753Y-17691692D01*
X12608753Y-17691692D02*
X12618277Y-17672644D01*
X12618277Y-17672644D02*
X12627801Y-17663120D01*
X12627801Y-17663120D02*
X12646848Y-17653596D01*
X12780182Y-17653596D02*
X12903991Y-17653596D01*
X12903991Y-17653596D02*
X12837325Y-17729787D01*
X12837325Y-17729787D02*
X12865896Y-17729787D01*
X12865896Y-17729787D02*
X12884944Y-17739311D01*
X12884944Y-17739311D02*
X12894467Y-17748835D01*
X12894467Y-17748835D02*
X12903991Y-17767882D01*
X12903991Y-17767882D02*
X12903991Y-17815501D01*
X12903991Y-17815501D02*
X12894467Y-17834549D01*
X12894467Y-17834549D02*
X12884944Y-17844073D01*
X12884944Y-17844073D02*
X12865896Y-17853596D01*
X12865896Y-17853596D02*
X12808753Y-17853596D01*
X12808753Y-17853596D02*
X12789706Y-17844073D01*
X12789706Y-17844073D02*
X12780182Y-17834549D01*
X13027801Y-17653596D02*
X13046848Y-17653596D01*
X13046848Y-17653596D02*
X13065896Y-17663120D01*
X13065896Y-17663120D02*
X13075420Y-17672644D01*
X13075420Y-17672644D02*
X13084944Y-17691692D01*
X13084944Y-17691692D02*
X13094467Y-17729787D01*
X13094467Y-17729787D02*
X13094467Y-17777406D01*
X13094467Y-17777406D02*
X13084944Y-17815501D01*
X13084944Y-17815501D02*
X13075420Y-17834549D01*
X13075420Y-17834549D02*
X13065896Y-17844073D01*
X13065896Y-17844073D02*
X13046848Y-17853596D01*
X13046848Y-17853596D02*
X13027801Y-17853596D01*
X13027801Y-17853596D02*
X13008753Y-17844073D01*
X13008753Y-17844073D02*
X12999229Y-17834549D01*
X12999229Y-17834549D02*
X12989706Y-17815501D01*
X12989706Y-17815501D02*
X12980182Y-17777406D01*
X12980182Y-17777406D02*
X12980182Y-17729787D01*
X12980182Y-17729787D02*
X12989706Y-17691692D01*
X12989706Y-17691692D02*
X12999229Y-17672644D01*
X12999229Y-17672644D02*
X13008753Y-17663120D01*
X13008753Y-17663120D02*
X13027801Y-17653596D01*
X13218277Y-17653596D02*
X13237325Y-17653596D01*
X13237325Y-17653596D02*
X13256372Y-17663120D01*
X13256372Y-17663120D02*
X13265896Y-17672644D01*
X13265896Y-17672644D02*
X13275420Y-17691692D01*
X13275420Y-17691692D02*
X13284944Y-17729787D01*
X13284944Y-17729787D02*
X13284944Y-17777406D01*
X13284944Y-17777406D02*
X13275420Y-17815501D01*
X13275420Y-17815501D02*
X13265896Y-17834549D01*
X13265896Y-17834549D02*
X13256372Y-17844073D01*
X13256372Y-17844073D02*
X13237325Y-17853596D01*
X13237325Y-17853596D02*
X13218277Y-17853596D01*
X13218277Y-17853596D02*
X13199229Y-17844073D01*
X13199229Y-17844073D02*
X13189706Y-17834549D01*
X13189706Y-17834549D02*
X13180182Y-17815501D01*
X13180182Y-17815501D02*
X13170658Y-17777406D01*
X13170658Y-17777406D02*
X13170658Y-17729787D01*
X13170658Y-17729787D02*
X13180182Y-17691692D01*
X13180182Y-17691692D02*
X13189706Y-17672644D01*
X13189706Y-17672644D02*
X13199229Y-17663120D01*
X13199229Y-17663120D02*
X13218277Y-17653596D01*
X13361134Y-17653596D02*
X13361134Y-17691692D01*
X13437325Y-17653596D02*
X13437325Y-17691692D01*
X13732563Y-17929787D02*
X13723039Y-17920263D01*
X13723039Y-17920263D02*
X13703991Y-17891692D01*
X13703991Y-17891692D02*
X13694468Y-17872644D01*
X13694468Y-17872644D02*
X13684944Y-17844073D01*
X13684944Y-17844073D02*
X13675420Y-17796454D01*
X13675420Y-17796454D02*
X13675420Y-17758358D01*
X13675420Y-17758358D02*
X13684944Y-17710739D01*
X13684944Y-17710739D02*
X13694468Y-17682168D01*
X13694468Y-17682168D02*
X13703991Y-17663120D01*
X13703991Y-17663120D02*
X13723039Y-17634549D01*
X13723039Y-17634549D02*
X13732563Y-17625025D01*
X13913515Y-17853596D02*
X13799229Y-17853596D01*
X13856372Y-17853596D02*
X13856372Y-17653596D01*
X13856372Y-17653596D02*
X13837325Y-17682168D01*
X13837325Y-17682168D02*
X13818277Y-17701215D01*
X13818277Y-17701215D02*
X13799229Y-17710739D01*
X14094468Y-17653596D02*
X13999229Y-17653596D01*
X13999229Y-17653596D02*
X13989706Y-17748835D01*
X13989706Y-17748835D02*
X13999229Y-17739311D01*
X13999229Y-17739311D02*
X14018277Y-17729787D01*
X14018277Y-17729787D02*
X14065896Y-17729787D01*
X14065896Y-17729787D02*
X14084944Y-17739311D01*
X14084944Y-17739311D02*
X14094468Y-17748835D01*
X14094468Y-17748835D02*
X14103991Y-17767882D01*
X14103991Y-17767882D02*
X14103991Y-17815501D01*
X14103991Y-17815501D02*
X14094468Y-17834549D01*
X14094468Y-17834549D02*
X14084944Y-17844073D01*
X14084944Y-17844073D02*
X14065896Y-17853596D01*
X14065896Y-17853596D02*
X14018277Y-17853596D01*
X14018277Y-17853596D02*
X13999229Y-17844073D01*
X13999229Y-17844073D02*
X13989706Y-17834549D01*
X14294468Y-17853596D02*
X14180182Y-17853596D01*
X14237325Y-17853596D02*
X14237325Y-17653596D01*
X14237325Y-17653596D02*
X14218277Y-17682168D01*
X14218277Y-17682168D02*
X14199229Y-17701215D01*
X14199229Y-17701215D02*
X14180182Y-17710739D01*
X14532563Y-17853596D02*
X14532563Y-17653596D01*
X14618277Y-17853596D02*
X14618277Y-17748835D01*
X14618277Y-17748835D02*
X14608753Y-17729787D01*
X14608753Y-17729787D02*
X14589706Y-17720263D01*
X14589706Y-17720263D02*
X14561134Y-17720263D01*
X14561134Y-17720263D02*
X14542087Y-17729787D01*
X14542087Y-17729787D02*
X14532563Y-17739311D01*
X14742087Y-17853596D02*
X14723039Y-17844073D01*
X14723039Y-17844073D02*
X14713515Y-17834549D01*
X14713515Y-17834549D02*
X14703991Y-17815501D01*
X14703991Y-17815501D02*
X14703991Y-17758358D01*
X14703991Y-17758358D02*
X14713515Y-17739311D01*
X14713515Y-17739311D02*
X14723039Y-17729787D01*
X14723039Y-17729787D02*
X14742087Y-17720263D01*
X14742087Y-17720263D02*
X14770658Y-17720263D01*
X14770658Y-17720263D02*
X14789706Y-17729787D01*
X14789706Y-17729787D02*
X14799230Y-17739311D01*
X14799230Y-17739311D02*
X14808753Y-17758358D01*
X14808753Y-17758358D02*
X14808753Y-17815501D01*
X14808753Y-17815501D02*
X14799230Y-17834549D01*
X14799230Y-17834549D02*
X14789706Y-17844073D01*
X14789706Y-17844073D02*
X14770658Y-17853596D01*
X14770658Y-17853596D02*
X14742087Y-17853596D01*
X14923039Y-17853596D02*
X14903991Y-17844073D01*
X14903991Y-17844073D02*
X14894468Y-17825025D01*
X14894468Y-17825025D02*
X14894468Y-17653596D01*
X15075420Y-17844073D02*
X15056372Y-17853596D01*
X15056372Y-17853596D02*
X15018277Y-17853596D01*
X15018277Y-17853596D02*
X14999230Y-17844073D01*
X14999230Y-17844073D02*
X14989706Y-17825025D01*
X14989706Y-17825025D02*
X14989706Y-17748835D01*
X14989706Y-17748835D02*
X14999230Y-17729787D01*
X14999230Y-17729787D02*
X15018277Y-17720263D01*
X15018277Y-17720263D02*
X15056372Y-17720263D01*
X15056372Y-17720263D02*
X15075420Y-17729787D01*
X15075420Y-17729787D02*
X15084944Y-17748835D01*
X15084944Y-17748835D02*
X15084944Y-17767882D01*
X15084944Y-17767882D02*
X14989706Y-17786930D01*
X15161134Y-17844073D02*
X15180182Y-17853596D01*
X15180182Y-17853596D02*
X15218277Y-17853596D01*
X15218277Y-17853596D02*
X15237325Y-17844073D01*
X15237325Y-17844073D02*
X15246849Y-17825025D01*
X15246849Y-17825025D02*
X15246849Y-17815501D01*
X15246849Y-17815501D02*
X15237325Y-17796454D01*
X15237325Y-17796454D02*
X15218277Y-17786930D01*
X15218277Y-17786930D02*
X15189706Y-17786930D01*
X15189706Y-17786930D02*
X15170658Y-17777406D01*
X15170658Y-17777406D02*
X15161134Y-17758358D01*
X15161134Y-17758358D02*
X15161134Y-17748835D01*
X15161134Y-17748835D02*
X15170658Y-17729787D01*
X15170658Y-17729787D02*
X15189706Y-17720263D01*
X15189706Y-17720263D02*
X15218277Y-17720263D01*
X15218277Y-17720263D02*
X15237325Y-17729787D01*
X15313515Y-17929787D02*
X15323039Y-17920263D01*
X15323039Y-17920263D02*
X15342087Y-17891692D01*
X15342087Y-17891692D02*
X15351611Y-17872644D01*
X15351611Y-17872644D02*
X15361134Y-17844073D01*
X15361134Y-17844073D02*
X15370658Y-17796454D01*
X15370658Y-17796454D02*
X15370658Y-17758358D01*
X15370658Y-17758358D02*
X15361134Y-17710739D01*
X15361134Y-17710739D02*
X15351611Y-17682168D01*
X15351611Y-17682168D02*
X15342087Y-17663120D01*
X15342087Y-17663120D02*
X15323039Y-17634549D01*
X15323039Y-17634549D02*
X15313515Y-17625025D01*
X10057500Y-17926113D02*
X10057500Y-18126113D01*
X9957500Y-18026113D02*
X10157500Y-18026113D01*
X10503991Y-17984263D02*
X10503991Y-18117596D01*
X10456372Y-17908073D02*
X10408753Y-18050930D01*
X10408753Y-18050930D02*
X10532563Y-18050930D01*
X10608753Y-18098549D02*
X10618277Y-18108073D01*
X10618277Y-18108073D02*
X10608753Y-18117596D01*
X10608753Y-18117596D02*
X10599229Y-18108073D01*
X10599229Y-18108073D02*
X10608753Y-18098549D01*
X10608753Y-18098549D02*
X10608753Y-18117596D01*
X10799229Y-17917596D02*
X10703991Y-17917596D01*
X10703991Y-17917596D02*
X10694467Y-18012835D01*
X10694467Y-18012835D02*
X10703991Y-18003311D01*
X10703991Y-18003311D02*
X10723039Y-17993787D01*
X10723039Y-17993787D02*
X10770658Y-17993787D01*
X10770658Y-17993787D02*
X10789705Y-18003311D01*
X10789705Y-18003311D02*
X10799229Y-18012835D01*
X10799229Y-18012835D02*
X10808753Y-18031882D01*
X10808753Y-18031882D02*
X10808753Y-18079501D01*
X10808753Y-18079501D02*
X10799229Y-18098549D01*
X10799229Y-18098549D02*
X10789705Y-18108073D01*
X10789705Y-18108073D02*
X10770658Y-18117596D01*
X10770658Y-18117596D02*
X10723039Y-18117596D01*
X10723039Y-18117596D02*
X10703991Y-18108073D01*
X10703991Y-18108073D02*
X10694467Y-18098549D01*
X10932563Y-17917596D02*
X10951610Y-17917596D01*
X10951610Y-17917596D02*
X10970658Y-17927120D01*
X10970658Y-17927120D02*
X10980182Y-17936644D01*
X10980182Y-17936644D02*
X10989705Y-17955692D01*
X10989705Y-17955692D02*
X10999229Y-17993787D01*
X10999229Y-17993787D02*
X10999229Y-18041406D01*
X10999229Y-18041406D02*
X10989705Y-18079501D01*
X10989705Y-18079501D02*
X10980182Y-18098549D01*
X10980182Y-18098549D02*
X10970658Y-18108073D01*
X10970658Y-18108073D02*
X10951610Y-18117596D01*
X10951610Y-18117596D02*
X10932563Y-18117596D01*
X10932563Y-18117596D02*
X10913515Y-18108073D01*
X10913515Y-18108073D02*
X10903991Y-18098549D01*
X10903991Y-18098549D02*
X10894467Y-18079501D01*
X10894467Y-18079501D02*
X10884944Y-18041406D01*
X10884944Y-18041406D02*
X10884944Y-17993787D01*
X10884944Y-17993787D02*
X10894467Y-17955692D01*
X10894467Y-17955692D02*
X10903991Y-17936644D01*
X10903991Y-17936644D02*
X10913515Y-17927120D01*
X10913515Y-17927120D02*
X10932563Y-17917596D01*
X11123039Y-17917596D02*
X11142086Y-17917596D01*
X11142086Y-17917596D02*
X11161134Y-17927120D01*
X11161134Y-17927120D02*
X11170658Y-17936644D01*
X11170658Y-17936644D02*
X11180182Y-17955692D01*
X11180182Y-17955692D02*
X11189705Y-17993787D01*
X11189705Y-17993787D02*
X11189705Y-18041406D01*
X11189705Y-18041406D02*
X11180182Y-18079501D01*
X11180182Y-18079501D02*
X11170658Y-18098549D01*
X11170658Y-18098549D02*
X11161134Y-18108073D01*
X11161134Y-18108073D02*
X11142086Y-18117596D01*
X11142086Y-18117596D02*
X11123039Y-18117596D01*
X11123039Y-18117596D02*
X11103991Y-18108073D01*
X11103991Y-18108073D02*
X11094467Y-18098549D01*
X11094467Y-18098549D02*
X11084944Y-18079501D01*
X11084944Y-18079501D02*
X11075420Y-18041406D01*
X11075420Y-18041406D02*
X11075420Y-17993787D01*
X11075420Y-17993787D02*
X11084944Y-17955692D01*
X11084944Y-17955692D02*
X11094467Y-17936644D01*
X11094467Y-17936644D02*
X11103991Y-17927120D01*
X11103991Y-17927120D02*
X11123039Y-17917596D01*
X11275420Y-18117596D02*
X11275420Y-17984263D01*
X11275420Y-18003311D02*
X11284943Y-17993787D01*
X11284943Y-17993787D02*
X11303991Y-17984263D01*
X11303991Y-17984263D02*
X11332563Y-17984263D01*
X11332563Y-17984263D02*
X11351610Y-17993787D01*
X11351610Y-17993787D02*
X11361134Y-18012835D01*
X11361134Y-18012835D02*
X11361134Y-18117596D01*
X11361134Y-18012835D02*
X11370658Y-17993787D01*
X11370658Y-17993787D02*
X11389705Y-17984263D01*
X11389705Y-17984263D02*
X11418277Y-17984263D01*
X11418277Y-17984263D02*
X11437324Y-17993787D01*
X11437324Y-17993787D02*
X11446848Y-18012835D01*
X11446848Y-18012835D02*
X11446848Y-18117596D01*
X11542086Y-18117596D02*
X11542086Y-17984263D01*
X11542086Y-18003311D02*
X11551610Y-17993787D01*
X11551610Y-17993787D02*
X11570658Y-17984263D01*
X11570658Y-17984263D02*
X11599229Y-17984263D01*
X11599229Y-17984263D02*
X11618277Y-17993787D01*
X11618277Y-17993787D02*
X11627801Y-18012835D01*
X11627801Y-18012835D02*
X11627801Y-18117596D01*
X11627801Y-18012835D02*
X11637324Y-17993787D01*
X11637324Y-17993787D02*
X11656372Y-17984263D01*
X11656372Y-17984263D02*
X11684943Y-17984263D01*
X11684943Y-17984263D02*
X11703991Y-17993787D01*
X11703991Y-17993787D02*
X11713515Y-18012835D01*
X11713515Y-18012835D02*
X11713515Y-18117596D01*
X12103991Y-17908073D02*
X11932563Y-18165215D01*
X12361134Y-17917596D02*
X12380182Y-17917596D01*
X12380182Y-17917596D02*
X12399229Y-17927120D01*
X12399229Y-17927120D02*
X12408753Y-17936644D01*
X12408753Y-17936644D02*
X12418277Y-17955692D01*
X12418277Y-17955692D02*
X12427801Y-17993787D01*
X12427801Y-17993787D02*
X12427801Y-18041406D01*
X12427801Y-18041406D02*
X12418277Y-18079501D01*
X12418277Y-18079501D02*
X12408753Y-18098549D01*
X12408753Y-18098549D02*
X12399229Y-18108073D01*
X12399229Y-18108073D02*
X12380182Y-18117596D01*
X12380182Y-18117596D02*
X12361134Y-18117596D01*
X12361134Y-18117596D02*
X12342086Y-18108073D01*
X12342086Y-18108073D02*
X12332563Y-18098549D01*
X12332563Y-18098549D02*
X12323039Y-18079501D01*
X12323039Y-18079501D02*
X12313515Y-18041406D01*
X12313515Y-18041406D02*
X12313515Y-17993787D01*
X12313515Y-17993787D02*
X12323039Y-17955692D01*
X12323039Y-17955692D02*
X12332563Y-17936644D01*
X12332563Y-17936644D02*
X12342086Y-17927120D01*
X12342086Y-17927120D02*
X12361134Y-17917596D01*
X12513515Y-18098549D02*
X12523039Y-18108073D01*
X12523039Y-18108073D02*
X12513515Y-18117596D01*
X12513515Y-18117596D02*
X12503991Y-18108073D01*
X12503991Y-18108073D02*
X12513515Y-18098549D01*
X12513515Y-18098549D02*
X12513515Y-18117596D01*
X12713515Y-18117596D02*
X12599229Y-18117596D01*
X12656372Y-18117596D02*
X12656372Y-17917596D01*
X12656372Y-17917596D02*
X12637325Y-17946168D01*
X12637325Y-17946168D02*
X12618277Y-17965215D01*
X12618277Y-17965215D02*
X12599229Y-17974739D01*
X12780182Y-17917596D02*
X12913515Y-17917596D01*
X12913515Y-17917596D02*
X12827801Y-18117596D01*
X12970658Y-17917596D02*
X13103991Y-17917596D01*
X13103991Y-17917596D02*
X13018277Y-18117596D01*
X13170658Y-17936644D02*
X13180182Y-17927120D01*
X13180182Y-17927120D02*
X13199229Y-17917596D01*
X13199229Y-17917596D02*
X13246848Y-17917596D01*
X13246848Y-17917596D02*
X13265896Y-17927120D01*
X13265896Y-17927120D02*
X13275420Y-17936644D01*
X13275420Y-17936644D02*
X13284944Y-17955692D01*
X13284944Y-17955692D02*
X13284944Y-17974739D01*
X13284944Y-17974739D02*
X13275420Y-18003311D01*
X13275420Y-18003311D02*
X13161134Y-18117596D01*
X13161134Y-18117596D02*
X13284944Y-18117596D01*
X13361134Y-17917596D02*
X13361134Y-17955692D01*
X13437325Y-17917596D02*
X13437325Y-17955692D01*
X13732563Y-18193787D02*
X13723039Y-18184263D01*
X13723039Y-18184263D02*
X13703991Y-18155692D01*
X13703991Y-18155692D02*
X13694468Y-18136644D01*
X13694468Y-18136644D02*
X13684944Y-18108073D01*
X13684944Y-18108073D02*
X13675420Y-18060454D01*
X13675420Y-18060454D02*
X13675420Y-18022358D01*
X13675420Y-18022358D02*
X13684944Y-17974739D01*
X13684944Y-17974739D02*
X13694468Y-17946168D01*
X13694468Y-17946168D02*
X13703991Y-17927120D01*
X13703991Y-17927120D02*
X13723039Y-17898549D01*
X13723039Y-17898549D02*
X13732563Y-17889025D01*
X13799229Y-17936644D02*
X13808753Y-17927120D01*
X13808753Y-17927120D02*
X13827801Y-17917596D01*
X13827801Y-17917596D02*
X13875420Y-17917596D01*
X13875420Y-17917596D02*
X13894468Y-17927120D01*
X13894468Y-17927120D02*
X13903991Y-17936644D01*
X13903991Y-17936644D02*
X13913515Y-17955692D01*
X13913515Y-17955692D02*
X13913515Y-17974739D01*
X13913515Y-17974739D02*
X13903991Y-18003311D01*
X13903991Y-18003311D02*
X13789706Y-18117596D01*
X13789706Y-18117596D02*
X13913515Y-18117596D01*
X14151610Y-18117596D02*
X14151610Y-17917596D01*
X14237325Y-18117596D02*
X14237325Y-18012835D01*
X14237325Y-18012835D02*
X14227801Y-17993787D01*
X14227801Y-17993787D02*
X14208753Y-17984263D01*
X14208753Y-17984263D02*
X14180182Y-17984263D01*
X14180182Y-17984263D02*
X14161134Y-17993787D01*
X14161134Y-17993787D02*
X14151610Y-18003311D01*
X14361134Y-18117596D02*
X14342087Y-18108073D01*
X14342087Y-18108073D02*
X14332563Y-18098549D01*
X14332563Y-18098549D02*
X14323039Y-18079501D01*
X14323039Y-18079501D02*
X14323039Y-18022358D01*
X14323039Y-18022358D02*
X14332563Y-18003311D01*
X14332563Y-18003311D02*
X14342087Y-17993787D01*
X14342087Y-17993787D02*
X14361134Y-17984263D01*
X14361134Y-17984263D02*
X14389706Y-17984263D01*
X14389706Y-17984263D02*
X14408753Y-17993787D01*
X14408753Y-17993787D02*
X14418277Y-18003311D01*
X14418277Y-18003311D02*
X14427801Y-18022358D01*
X14427801Y-18022358D02*
X14427801Y-18079501D01*
X14427801Y-18079501D02*
X14418277Y-18098549D01*
X14418277Y-18098549D02*
X14408753Y-18108073D01*
X14408753Y-18108073D02*
X14389706Y-18117596D01*
X14389706Y-18117596D02*
X14361134Y-18117596D01*
X14542087Y-18117596D02*
X14523039Y-18108073D01*
X14523039Y-18108073D02*
X14513515Y-18089025D01*
X14513515Y-18089025D02*
X14513515Y-17917596D01*
X14694468Y-18108073D02*
X14675420Y-18117596D01*
X14675420Y-18117596D02*
X14637325Y-18117596D01*
X14637325Y-18117596D02*
X14618277Y-18108073D01*
X14618277Y-18108073D02*
X14608753Y-18089025D01*
X14608753Y-18089025D02*
X14608753Y-18012835D01*
X14608753Y-18012835D02*
X14618277Y-17993787D01*
X14618277Y-17993787D02*
X14637325Y-17984263D01*
X14637325Y-17984263D02*
X14675420Y-17984263D01*
X14675420Y-17984263D02*
X14694468Y-17993787D01*
X14694468Y-17993787D02*
X14703991Y-18012835D01*
X14703991Y-18012835D02*
X14703991Y-18031882D01*
X14703991Y-18031882D02*
X14608753Y-18050930D01*
X14780182Y-18108073D02*
X14799230Y-18117596D01*
X14799230Y-18117596D02*
X14837325Y-18117596D01*
X14837325Y-18117596D02*
X14856372Y-18108073D01*
X14856372Y-18108073D02*
X14865896Y-18089025D01*
X14865896Y-18089025D02*
X14865896Y-18079501D01*
X14865896Y-18079501D02*
X14856372Y-18060454D01*
X14856372Y-18060454D02*
X14837325Y-18050930D01*
X14837325Y-18050930D02*
X14808753Y-18050930D01*
X14808753Y-18050930D02*
X14789706Y-18041406D01*
X14789706Y-18041406D02*
X14780182Y-18022358D01*
X14780182Y-18022358D02*
X14780182Y-18012835D01*
X14780182Y-18012835D02*
X14789706Y-17993787D01*
X14789706Y-17993787D02*
X14808753Y-17984263D01*
X14808753Y-17984263D02*
X14837325Y-17984263D01*
X14837325Y-17984263D02*
X14856372Y-17993787D01*
X14932563Y-18193787D02*
X14942087Y-18184263D01*
X14942087Y-18184263D02*
X14961134Y-18155692D01*
X14961134Y-18155692D02*
X14970658Y-18136644D01*
X14970658Y-18136644D02*
X14980182Y-18108073D01*
X14980182Y-18108073D02*
X14989706Y-18060454D01*
X14989706Y-18060454D02*
X14989706Y-18022358D01*
X14989706Y-18022358D02*
X14980182Y-17974739D01*
X14980182Y-17974739D02*
X14970658Y-17946168D01*
X14970658Y-17946168D02*
X14961134Y-17927120D01*
X14961134Y-17927120D02*
X14942087Y-17898549D01*
X14942087Y-17898549D02*
X14932563Y-17889025D01*
M02*
