%TF.GenerationSoftware,KiCad,Pcbnew,8.0.3*%
%TF.CreationDate,2024-07-26T13:29:56+05:30*%
%TF.ProjectId,Micromouse_final,4d696372-6f6d-46f7-9573-655f66696e61,rev?*%
%TF.SameCoordinates,Original*%
%TF.FileFunction,Soldermask,Top*%
%TF.FilePolarity,Negative*%
%FSLAX46Y46*%
G04 Gerber Fmt 4.6, Leading zero omitted, Abs format (unit mm)*
G04 Created by KiCad (PCBNEW 8.0.3) date 2024-07-26 13:29:56*
%MOMM*%
%LPD*%
G01*
G04 APERTURE LIST*
G04 Aperture macros list*
%AMRoundRect*
0 Rectangle with rounded corners*
0 $1 Rounding radius*
0 $2 $3 $4 $5 $6 $7 $8 $9 X,Y pos of 4 corners*
0 Add a 4 corners polygon primitive as box body*
4,1,4,$2,$3,$4,$5,$6,$7,$8,$9,$2,$3,0*
0 Add four circle primitives for the rounded corners*
1,1,$1+$1,$2,$3*
1,1,$1+$1,$4,$5*
1,1,$1+$1,$6,$7*
1,1,$1+$1,$8,$9*
0 Add four rect primitives between the rounded corners*
20,1,$1+$1,$2,$3,$4,$5,0*
20,1,$1+$1,$4,$5,$6,$7,0*
20,1,$1+$1,$6,$7,$8,$9,0*
20,1,$1+$1,$8,$9,$2,$3,0*%
G04 Aperture macros list end*
%ADD10R,1.524000X1.524000*%
%ADD11C,1.524000*%
%ADD12C,6.000000*%
%ADD13RoundRect,1.500000X-1.500000X1.500000X-1.500000X-1.500000X1.500000X-1.500000X1.500000X1.500000X0*%
G04 APERTURE END LIST*
D10*
%TO.C,M1*%
X124460000Y-96520000D03*
D11*
X124460000Y-99060000D03*
X124460000Y-101600000D03*
X124460000Y-104140000D03*
X124460000Y-106680000D03*
X124460000Y-109220000D03*
%TD*%
D10*
%TO.C,U8*%
X110236000Y-132588000D03*
D11*
X112776000Y-132588000D03*
X115316000Y-132588000D03*
X117856000Y-132588000D03*
X120396000Y-132588000D03*
X122936000Y-132588000D03*
X125476000Y-132588000D03*
X128016000Y-132588000D03*
%TD*%
%TO.C,U3*%
X147320000Y-157480000D03*
D10*
X147320000Y-149860000D03*
D11*
X134620000Y-157480000D03*
X134620000Y-149860000D03*
%TD*%
%TO.C,U7*%
X167640000Y-71120000D03*
X167640000Y-73660000D03*
X167640000Y-76200000D03*
X167640000Y-78740000D03*
X167640000Y-81280000D03*
X167640000Y-83820000D03*
X167640000Y-86360000D03*
X167640000Y-88900000D03*
X167640000Y-91440000D03*
X167640000Y-93980000D03*
X167640000Y-96520000D03*
X167640000Y-99060000D03*
X167640000Y-101600000D03*
X167640000Y-104140000D03*
X167640000Y-106680000D03*
X167640000Y-109220000D03*
X167640000Y-111760000D03*
X167640000Y-114300000D03*
X167640000Y-116840000D03*
X167640000Y-119380000D03*
X167640000Y-121920000D03*
X167640000Y-124460000D03*
X167640000Y-127000000D03*
X167640000Y-129540000D03*
%TD*%
D10*
%TO.C,TOF_1*%
X185420000Y-76200000D03*
D11*
X185420000Y-73660000D03*
X185420000Y-71120000D03*
X185420000Y-68580000D03*
%TD*%
D10*
%TO.C,M2*%
X180340000Y-96520000D03*
D11*
X180340000Y-99060000D03*
X180340000Y-101600000D03*
X180340000Y-104140000D03*
X180340000Y-106680000D03*
X180340000Y-109220000D03*
%TD*%
D12*
%TO.C,U4*%
X165100000Y-156044000D03*
D13*
X165100000Y-148844000D03*
%TD*%
D10*
%TO.C,TOF_2*%
X157480000Y-55880000D03*
D11*
X154940000Y-55880000D03*
X152400000Y-55880000D03*
X149860000Y-55880000D03*
%TD*%
D10*
%TO.C,TOF_3*%
X119380000Y-68580000D03*
D11*
X119380000Y-71120000D03*
X119380000Y-73660000D03*
X119380000Y-76200000D03*
%TD*%
%TO.C,U2*%
X137160000Y-71120000D03*
X137160000Y-73660000D03*
X137160000Y-76200000D03*
X137160000Y-78740000D03*
X137160000Y-81280000D03*
X137160000Y-83820000D03*
X137160000Y-86360000D03*
X137160000Y-88900000D03*
X137160000Y-91440000D03*
X137160000Y-93980000D03*
X137160000Y-96520000D03*
X137160000Y-99060000D03*
X137160000Y-101600000D03*
X137160000Y-104140000D03*
X137160000Y-106680000D03*
X137160000Y-109220000D03*
X137160000Y-111760000D03*
X137160000Y-114300000D03*
X137160000Y-116840000D03*
X137160000Y-119380000D03*
X137160000Y-121920000D03*
X137160000Y-124460000D03*
X137160000Y-127000000D03*
X137160000Y-129540000D03*
%TD*%
%TO.C,U6*%
X155194000Y-139446000D03*
X152654000Y-139446000D03*
X150114000Y-139446000D03*
%TD*%
%TO.C,U5*%
X144780000Y-71120000D03*
X144780000Y-73660000D03*
X144780000Y-76200000D03*
X144780000Y-78740000D03*
X144780000Y-81280000D03*
X144780000Y-83820000D03*
X144780000Y-86360000D03*
X144780000Y-88900000D03*
X144780000Y-91440000D03*
X144780000Y-93980000D03*
X144780000Y-96520000D03*
X144780000Y-99060000D03*
X144780000Y-101600000D03*
X144780000Y-104140000D03*
X144780000Y-106680000D03*
X144780000Y-109220000D03*
X144780000Y-111760000D03*
X144780000Y-114300000D03*
X144780000Y-116840000D03*
X144780000Y-119380000D03*
X144780000Y-121920000D03*
X144780000Y-124460000D03*
X144780000Y-127000000D03*
X144780000Y-129540000D03*
X160020000Y-129540000D03*
X160020000Y-127000000D03*
X160020000Y-124460000D03*
X160020000Y-121920000D03*
X160020000Y-119380000D03*
X160020000Y-116840000D03*
X160020000Y-114300000D03*
X160020000Y-111760000D03*
X160020000Y-109220000D03*
X160020000Y-106680000D03*
X160020000Y-104140000D03*
X160020000Y-101600000D03*
X160020000Y-99060000D03*
X160020000Y-96520000D03*
X160020000Y-93980000D03*
X160020000Y-91440000D03*
X160020000Y-88900000D03*
X160020000Y-86360000D03*
X160020000Y-83820000D03*
X160020000Y-81280000D03*
X160020000Y-78740000D03*
X160020000Y-76200000D03*
X160020000Y-73660000D03*
X160020000Y-71120000D03*
%TD*%
%TO.C,U1*%
X178308000Y-134112000D03*
X180848000Y-134112000D03*
X183388000Y-134112000D03*
X185928000Y-134112000D03*
X188468000Y-134112000D03*
X191008000Y-134112000D03*
X193548000Y-134112000D03*
X196088000Y-134112000D03*
X196088000Y-118872000D03*
X193548000Y-118872000D03*
X191008000Y-118872000D03*
X188468000Y-118872000D03*
X185928000Y-118872000D03*
X183388000Y-118872000D03*
X180848000Y-118872000D03*
X178308000Y-118872000D03*
%TD*%
M02*
